<?xml version="1.0" encoding="UTF-8" standalone="no"?>
<!-- Created with Inkscape (http://www.inkscape.org/) -->

<svg
   width="160mm"
   height="120.86062mm"
   viewBox="0 0 160 120.86062"
   version="1.1"
   id="svg7734"
   inkscape:version="1.2.2 (1:1.2.2+202212051552+b0a8486541)"
   sodipodi:docname="rvesimulator.svg"
   inkscape:export-filename="rve_simulator.png"
   inkscape:export-xdpi="300"
   inkscape:export-ydpi="300"
   xmlns:inkscape="http://www.inkscape.org/namespaces/inkscape"
   xmlns:sodipodi="http://sodipodi.sourceforge.net/DTD/sodipodi-0.dtd"
   xmlns="http://www.w3.org/2000/svg"
   xmlns:svg="http://www.w3.org/2000/svg">
  <sodipodi:namedview
     id="namedview7736"
     pagecolor="#ffffff"
     bordercolor="#000000"
     borderopacity="0.25"
     inkscape:showpageshadow="2"
     inkscape:pageopacity="0.0"
     inkscape:pagecheckerboard="0"
     inkscape:deskcolor="#d1d1d1"
     inkscape:document-units="mm"
     showgrid="false"
     inkscape:zoom="0.56443235"
     inkscape:cx="303.8451"
     inkscape:cy="549.22437"
     inkscape:window-width="1920"
     inkscape:window-height="1043"
     inkscape:window-x="1920"
     inkscape:window-y="0"
     inkscape:window-maximized="1"
     inkscape:current-layer="layer2" />
  <defs
     id="defs7731">
    <inkscape:path-effect
       effect="bspline"
       id="path-effect4819"
       is_visible="true"
       lpeversion="1"
       weight="33.333333"
       steps="2"
       helper_size="0"
       apply_no_weight="true"
       apply_with_weight="true"
       only_selected="false" />
    <marker
       style="overflow:visible"
       id="Arrow2"
       refX="0"
       refY="0"
       orient="auto-start-reverse"
       inkscape:stockid="Arrow2"
       markerWidth="2.7"
       markerHeight="1.9636364"
       viewBox="0 0 7.7 5.6"
       inkscape:isstock="true"
       inkscape:collect="always"
       preserveAspectRatio="xMidYMid">
      <path
         transform="scale(0.7)"
         d="M -2,-4 9,0 -2,4 c 2,-2.33 2,-5.66 0,-8 z"
         style="fill:context-stroke;fill-rule:evenodd;stroke:none"
         id="arrow2L" />
    </marker>
    <inkscape:path-effect
       effect="bspline"
       id="path-effect4408"
       is_visible="true"
       lpeversion="1"
       weight="33.333333"
       steps="2"
       helper_size="0"
       apply_no_weight="true"
       apply_with_weight="true"
       only_selected="false" />
    <inkscape:path-effect
       effect="bspline"
       id="path-effect4404"
       is_visible="true"
       lpeversion="1"
       weight="33.333333"
       steps="2"
       helper_size="0"
       apply_no_weight="true"
       apply_with_weight="true"
       only_selected="false" />
    <inkscape:path-effect
       effect="bspline"
       id="path-effect4400"
       is_visible="true"
       lpeversion="1"
       weight="33.333333"
       steps="2"
       helper_size="0"
       apply_no_weight="true"
       apply_with_weight="true"
       only_selected="false" />
    <inkscape:path-effect
       effect="bspline"
       id="path-effect2749"
       is_visible="true"
       lpeversion="1"
       weight="33.333333"
       steps="2"
       helper_size="0"
       apply_no_weight="true"
       apply_with_weight="true"
       only_selected="false" />
    <inkscape:path-effect
       effect="bspline"
       id="path-effect2663"
       is_visible="true"
       lpeversion="1"
       weight="33.333333"
       steps="2"
       helper_size="0"
       apply_no_weight="true"
       apply_with_weight="true"
       only_selected="false" />
    <inkscape:path-effect
       effect="bspline"
       id="path-effect1708"
       is_visible="true"
       lpeversion="1"
       weight="33.333333"
       steps="2"
       helper_size="0"
       apply_no_weight="true"
       apply_with_weight="true"
       only_selected="false" />
    <inkscape:path-effect
       effect="spiro"
       id="path-effect1680"
       is_visible="true"
       lpeversion="1" />
    <inkscape:path-effect
       effect="spiro"
       id="path-effect1652"
       is_visible="true"
       lpeversion="1" />
    <inkscape:path-effect
       effect="spiro"
       id="path-effect1622"
       is_visible="true"
       lpeversion="1" />
    <inkscape:path-effect
       effect="skeletal"
       id="path-effect11358"
       is_visible="true"
       lpeversion="1"
       pattern="M 0,4.9921382 C 0,2.2364779 2.2364779,0 4.9921382,0 c 2.7556604,0 4.9921383,2.2364779 4.9921383,4.9921382 0,2.7556604 -2.2364779,4.9921383 -4.9921383,4.9921383 C 2.2364779,9.9842765 0,7.7477986 0,4.9921382 Z"
       copytype="single_stretched"
       prop_scale="1"
       scale_y_rel="false"
       spacing="0"
       normal_offset="0"
       tang_offset="0"
       prop_units="false"
       vertical_pattern="false"
       hide_knot="false"
       fuse_tolerance="0" />
    <inkscape:path-effect
       effect="skeletal"
       id="path-effect11288"
       is_visible="true"
       lpeversion="1"
       pattern="M 0,4.9921382 C 0,2.2364779 2.2364779,0 4.9921382,0 c 2.7556604,0 4.9921383,2.2364779 4.9921383,4.9921382 0,2.7556604 -2.2364779,4.9921383 -4.9921383,4.9921383 C 2.2364779,9.9842765 0,7.7477986 0,4.9921382 Z"
       copytype="single_stretched"
       prop_scale="1"
       scale_y_rel="false"
       spacing="0"
       normal_offset="0"
       tang_offset="0"
       prop_units="false"
       vertical_pattern="false"
       hide_knot="false"
       fuse_tolerance="0" />
    <inkscape:path-effect
       effect="skeletal"
       id="path-effect10435"
       is_visible="true"
       lpeversion="1"
       pattern="M 0,4.9921382 C 0,2.2364779 2.2364779,0 4.9921382,0 c 2.7556604,0 4.9921383,2.2364779 4.9921383,4.9921382 0,2.7556604 -2.2364779,4.9921383 -4.9921383,4.9921383 C 2.2364779,9.9842765 0,7.7477986 0,4.9921382 Z"
       copytype="single_stretched"
       prop_scale="1"
       scale_y_rel="false"
       spacing="0"
       normal_offset="0"
       tang_offset="0"
       prop_units="false"
       vertical_pattern="false"
       hide_knot="false"
       fuse_tolerance="0" />
    <inkscape:path-effect
       effect="bspline"
       id="path-effect10433"
       is_visible="true"
       lpeversion="1"
       weight="33.333333"
       steps="2"
       helper_size="0"
       apply_no_weight="true"
       apply_with_weight="true"
       only_selected="false" />
    <inkscape:path-effect
       effect="powerstroke"
       id="path-effect10417"
       is_visible="true"
       lpeversion="1"
       offset_points="5,4.9921382"
       not_jump="false"
       sort_points="true"
       interpolator_type="CubicBezierJohan"
       interpolator_beta="0.2"
       start_linecap_type="zerowidth"
       linejoin_type="extrp_arc"
       miter_limit="4"
       scale_width="1"
       end_linecap_type="zerowidth" />
    <inkscape:path-effect
       effect="bspline"
       id="path-effect10415"
       is_visible="true"
       lpeversion="1"
       weight="33.333333"
       steps="2"
       helper_size="0"
       apply_no_weight="true"
       apply_with_weight="true"
       only_selected="false" />
    <inkscape:path-effect
       effect="spiro"
       id="path-effect10365"
       is_visible="true"
       lpeversion="1" />
    <inkscape:path-effect
       effect="spiro"
       id="path-effect10349"
       is_visible="true"
       lpeversion="1" />
    <inkscape:path-effect
       effect="skeletal"
       id="path-effect11358-1"
       is_visible="true"
       lpeversion="1"
       pattern="M 0,4.9921382 C 0,2.2364779 2.2364779,0 4.9921382,0 c 2.7556604,0 4.9921383,2.2364779 4.9921383,4.9921382 0,2.7556604 -2.2364779,4.9921383 -4.9921383,4.9921383 C 2.2364779,9.9842765 0,7.7477986 0,4.9921382 Z"
       copytype="single_stretched"
       prop_scale="1"
       scale_y_rel="false"
       spacing="0"
       normal_offset="0"
       tang_offset="0"
       prop_units="false"
       vertical_pattern="false"
       hide_knot="false"
       fuse_tolerance="0" />
    <inkscape:path-effect
       effect="skeletal"
       id="path-effect11358-2"
       is_visible="true"
       lpeversion="1"
       pattern="M 0,4.9921382 C 0,2.2364779 2.2364779,0 4.9921382,0 c 2.7556604,0 4.9921383,2.2364779 4.9921383,4.9921382 0,2.7556604 -2.2364779,4.9921383 -4.9921383,4.9921383 C 2.2364779,9.9842765 0,7.7477986 0,4.9921382 Z"
       copytype="single_stretched"
       prop_scale="0.43663046"
       scale_y_rel="false"
       spacing="0"
       normal_offset="0"
       tang_offset="0"
       prop_units="false"
       vertical_pattern="false"
       hide_knot="false"
       fuse_tolerance="0" />
    <inkscape:path-effect
       effect="bspline"
       id="path-effect10433-2"
       is_visible="true"
       lpeversion="1"
       weight="33.333333"
       steps="2"
       helper_size="0"
       apply_no_weight="true"
       apply_with_weight="true"
       only_selected="false" />
    <inkscape:path-effect
       effect="skeletal"
       id="path-effect10435-2"
       is_visible="true"
       lpeversion="1"
       pattern="M 0,4.9921382 C 0,2.2364779 2.2364779,0 4.9921382,0 c 2.7556604,0 4.9921383,2.2364779 4.9921383,4.9921382 0,2.7556604 -2.2364779,4.9921383 -4.9921383,4.9921383 C 2.2364779,9.9842765 0,7.7477986 0,4.9921382 Z"
       copytype="single_stretched"
       prop_scale="1"
       scale_y_rel="false"
       spacing="0"
       normal_offset="0"
       tang_offset="0"
       prop_units="false"
       vertical_pattern="false"
       hide_knot="false"
       fuse_tolerance="0" />
    <clipPath
       id="clipPath4650">
      <path
         d="M 4,3 H 9 V 8.488281 H 4 Z m 0,0"
         id="path9759" />
    </clipPath>
    <clipPath
       id="clipPath1634">
      <path
         d="m 5,3 h 5 V 8.488281 H 5 Z m 0,0"
         id="path6809" />
    </clipPath>
    <clipPath
       id="clipPath3221">
      <path
         d="m 6,3 h 5 V 8.488281 H 6 Z m 0,0"
         id="path8104" />
    </clipPath>
    <inkscape:path-effect
       effect="bspline"
       id="path-effect1708-6"
       is_visible="true"
       lpeversion="1"
       weight="33.333333"
       steps="2"
       helper_size="0"
       apply_no_weight="true"
       apply_with_weight="true"
       only_selected="false" />
    <inkscape:path-effect
       effect="bspline"
       id="path-effect32417-3"
       is_visible="true"
       lpeversion="1"
       weight="33.333333"
       steps="2"
       helper_size="0"
       apply_no_weight="true"
       apply_with_weight="true"
       only_selected="false" />
    <inkscape:path-effect
       effect="bspline"
       id="path-effect32417"
       is_visible="true"
       lpeversion="1"
       weight="33.333333"
       steps="2"
       helper_size="0"
       apply_no_weight="true"
       apply_with_weight="true"
       only_selected="false" />
  </defs>
  <g
     inkscape:label="back_box"
     inkscape:groupmode="layer"
     id="layer1"
     transform="translate(-25,-21.67856)">
    <rect
       style="opacity:0.97;fill:none;stroke:none;stroke-width:0.4"
       id="rect565"
       width="160"
       height="120.86062"
       x="25"
       y="21.67856" />
    <rect
       style="opacity:0.97;fill:#cccccc;fill-opacity:0.204165;stroke:#ececec;stroke-width:0.286;stroke-dasharray:0.286, 0.572;stroke-dashoffset:0"
       id="rect3710"
       width="80.211349"
       height="89.677078"
       x="42.210278"
       y="35.901798"
       rx="2.374222"
       ry="2.8958499" />
    <rect
       style="opacity:0.97;fill:#87decd;fill-opacity:1;stroke:#afdde9;stroke-width:0.0860004;stroke-dasharray:none"
       id="rect3714"
       width="28.789429"
       height="11.024453"
       x="27.430845"
       y="22.632286"
       rx="2.3742225"
       ry="2.8958499" />
    <rect
       style="opacity:0.97;fill:#87decd;fill-opacity:1;stroke:#afdde9;stroke-width:0.0860004;stroke-dasharray:none"
       id="rect5157"
       width="28.789429"
       height="11.024453"
       x="27.430845"
       y="130.97453"
       rx="2.3742225"
       ry="2.8958499" />
    <rect
       style="opacity:0.97;fill:none;fill-opacity:0.204165;stroke:#d40000;stroke-width:0.486;stroke-dasharray:0.486, 0.972003;stroke-dashoffset:0"
       id="rect5211"
       width="147.08067"
       height="92.664848"
       x="36.419998"
       y="34.8064"
       rx="2.374222"
       ry="2.8958499" />
  </g>
  <g
     inkscape:groupmode="layer"
     id="layer2"
     inkscape:label="python3"
     transform="translate(-25,-21.67856)">
    <rect
       style="opacity:0.97;fill:#ff6600;fill-opacity:0.122996;stroke:#808000;stroke-width:0.4"
       id="rect620"
       width="36.055614"
       height="9.773859"
       x="66.45797"
       y="40.526829"
       rx="2.3742223"
       ry="2.8958499" />
    <rect
       style="opacity:0.97;fill:none;fill-opacity:0.121569;stroke:#808000;stroke-width:0.4"
       id="rect620-1"
       width="74.519539"
       height="51.637085"
       x="45.757912"
       y="52.548546"
       rx="2.374222"
       ry="2.8958497" />
    <text
       xml:space="preserve"
       style="font-weight:bold;font-size:4.23333px;font-family:'Times New Roman';-inkscape-font-specification:'Times New Roman, Bold';opacity:0.97;fill:#000000;stroke:none;stroke-width:0.4"
       x="71.339745"
       y="46.722717"
       id="text1502"><tspan
         sodipodi:role="line"
         id="tspan1500"
         style="fill:#000000;stroke:none;stroke-width:0.4"
         x="71.339745"
         y="46.722717">Master-control</tspan></text>
    <rect
       style="opacity:0.97;fill:none;fill-opacity:0.122996;stroke:#808000;stroke-width:0.3;stroke-dasharray:0.6, 0.3;stroke-dashoffset:0"
       id="rect1498"
       width="53.394058"
       height="7.7194638"
       x="56.954624"
       y="55.423332"
       rx="0"
       ry="0" />
    <text
       xml:space="preserve"
       style="font-weight:bold;font-size:4.23333px;font-family:'Times New Roman';-inkscape-font-specification:'Times New Roman, Bold';opacity:0.97;fill:#000000;stroke:none;stroke-width:0.4"
       x="61.100079"
       y="60.731037"
       id="text1671"><tspan
         sodipodi:role="line"
         id="tspan1669"
         style="fill:#000000;stroke:none;stroke-width:0.4"
         x="61.100079"
         y="60.731037">DoE + Other FEM Paras</tspan></text>
    <rect
       style="opacity:0.97;fill:#de8787;fill-opacity:0.122996;stroke:#808000;stroke-width:0.400001"
       id="rect1724"
       width="72.348595"
       height="7.9111414"
       x="46.263035"
       y="111.12612"
       rx="2.3742223"
       ry="2.8958499" />
    <text
       xml:space="preserve"
       style="font-weight:bold;font-size:4.23333px;font-family:'Times New Roman';-inkscape-font-specification:'Times New Roman, Bold';opacity:0.97;fill:#000000;stroke:none;stroke-width:0.4"
       x="63.294853"
       y="116.20927"
       id="text1779"><tspan
         sodipodi:role="line"
         id="tspan1777"
         style="fill:#000000;stroke:none;stroke-width:0.4"
         x="63.294853"
         y="116.20927"> Postprocess Results</tspan></text>
    <g
       id="g5933">
      <rect
         style="opacity:0.97;fill:#999999;fill-opacity:0.121569;stroke:#ff00ff;stroke-width:0.300001;stroke-dasharray:none;stroke-dashoffset:0"
         id="rect5894"
         width="7.6708345"
         height="35.601986"
         x="124.97717"
         y="76.560608"
         rx="2.374222"
         ry="2.8958499" />
      <text
         xml:space="preserve"
         style="font-weight:bold;font-size:4.23333px;font-family:'Times New Roman';-inkscape-font-specification:'Times New Roman, Bold';opacity:0.97;fill:#d40000;stroke:none;stroke-width:0.4"
         x="-110.38335"
         y="129.82442"
         id="text1779-2"
         transform="rotate(-90)"><tspan
           sodipodi:role="line"
           id="tspan1777-0"
           style="fill:#d40000;stroke:none;stroke-width:0.4"
           x="-110.38335"
           y="129.82442">System command</tspan></text>
    </g>
    <g
       id="g2652"
       transform="matrix(0.52815539,0,0,0.52839117,22.370259,30.589436)"
       style="stroke-width:0.189296;stroke-dasharray:none">
      <path
         id="path5632"
         style="display:inline;fill:#488212;fill-opacity:0.109366;fill-rule:evenodd;stroke:#000000;stroke-width:0.189296;stroke-linejoin:bevel;stroke-miterlimit:3.9;stroke-dasharray:none;stroke-opacity:1;paint-order:fill markers stroke"
         d="m 129.43689,73.703158 h -6.54069 v 6.248715 a 3,3 0 0 1 0.12713,-0.005 3,3 0 0 1 0.0775,0.001 3,3 0 0 1 0.077,0.003 3,3 0 0 1 0.077,0.005 3,3 0 0 1 0.077,0.007 3,3 0 0 1 0.0765,0.009 3,3 0 0 1 0.0765,0.0109 3,3 0 0 1 0.0765,0.0129 3,3 0 0 1 0.076,0.0145 3,3 0 0 1 0.0749,0.017 3,3 0 0 1 0.0749,0.0186 3,3 0 0 1 0.0749,0.0207 3,3 0 0 1 0.0739,0.0222 3,3 0 0 1 0.0729,0.0248 3,3 0 0 1 0.0729,0.0263 3,3 0 0 1 0.0718,0.0279 3,3 0 0 1 0.0713,0.03 3,3 0 0 1 0.0703,0.032 3,3 0 0 1 0.0698,0.0336 3,3 0 0 1 0.0682,0.0357 3,3 0 0 1 0.0677,0.0367 3,3 0 0 1 0.0672,0.0393 3,3 0 0 1 0.0656,0.0403 3,3 0 0 1 0.0646,0.0424 3,3 0 0 1 0.0636,0.0439 3,3 0 0 1 0.062,0.0455 3,3 0 0 1 0.0615,0.0475 3,3 0 0 1 0.0599,0.0486 3,3 0 0 1 0.0584,0.0501 3,3 0 0 1 0.0574,0.0517 3,3 0 0 1 0.0563,0.0532 3,3 0 0 1 0.0548,0.0548 3,3 0 0 1 0.0532,0.0558 3,3 0 0 1 0.0517,0.0574 3,3 0 0 1 0.0501,0.0589 3,3 0 0 1 0.0486,0.0599 3,3 0 0 1 0.047,0.061 3,3 0 0 1 0.046,0.0625 3,3 0 0 1 0.0439,0.0636 3,3 0 0 1 0.0419,0.0646 3,3 0 0 1 0.0408,0.0656 3,3 0 0 1 0.0388,0.0667 3,3 0 0 1 0.0372,0.0677 3,3 0 0 1 0.0357,0.0687 3,3 0 0 1 0.0336,0.0698 3,3 0 0 1 0.032,0.0703 3,3 0 0 1 0.03,0.0713 3,3 0 0 1 0.0279,0.0718 3,3 0 0 1 0.0264,0.0729 3,3 0 0 1 0.0243,0.0729 3,3 0 0 1 0.0227,0.0739 3,3 0 0 1 0.0207,0.0744 3,3 0 0 1 0.0186,0.0749 3,3 0 0 1 0.017,0.0755 3,3 0 0 1 0.0145,0.076 3,3 0 0 1 0.0129,0.076 3,3 0 0 1 0.0109,0.0765 3,3 0 0 1 0.009,0.077 3,3 0 0 1 0.007,0.077 3,3 0 0 1 0.005,0.077 3,3 0 0 1 0.003,0.077 3,3 0 0 1 0,5.2e-4 3,3 0 0 1 0,5.1e-4 3,3 0 0 1 0,5.2e-4 3,3 0 0 1 0,5.2e-4 3,3 0 0 1 0,5.1e-4 3,3 0 0 1 5.2e-4,0.007 3,3 0 0 1 0,5.2e-4 3,3 0 0 1 0,5.2e-4 3,3 0 0 1 0,5.1e-4 3,3 0 0 1 0,5.2e-4 3,3 0 0 1 0,5.2e-4 3,3 0 0 1 0,5.1e-4 3,3 0 0 1 0,5.2e-4 3,3 0 0 1 0,5.2e-4 3,3 0 0 1 0,5.1e-4 3,3 0 0 1 0,5.2e-4 3,3 0 0 1 0,5.2e-4 3,3 0 0 1 0,5.1e-4 3,3 0 0 1 0,5.2e-4 3,3 0 0 1 0,5.2e-4 3,3 0 0 1 0,5.1e-4 3,3 0 0 1 0,5.2e-4 3,3 0 0 1 0,5.2e-4 3,3 0 0 1 0,5.1e-4 3,3 0 0 1 0,5.2e-4 3,3 0 0 1 0,5.2e-4 3,3 0 0 1 0,5.1e-4 3,3 0 0 1 0,5.2e-4 3,3 0 0 1 0,5.2e-4 3,3 0 0 1 0,5.1e-4 3,3 0 0 1 0,5.2e-4 3,3 0 0 1 0,5.2e-4 3,3 0 0 1 0,5.1e-4 3,3 0 0 1 0,5.2e-4 3,3 0 0 1 0,5.2e-4 3,3 0 0 1 0,5.1e-4 3,3 0 0 1 0,5.2e-4 3,3 0 0 1 0,5.2e-4 3,3 0 0 1 0,5.2e-4 3,3 0 0 1 0,5.1e-4 3,3 0 0 1 0,5.2e-4 3,3 0 0 1 0,5.2e-4 3,3 0 0 1 0,5.1e-4 3,3 0 0 1 0,5.2e-4 3,3 0 0 1 0,5.2e-4 3,3 0 0 1 0,5.1e-4 3,3 0 0 1 0,5.2e-4 3,3 0 0 1 0,5.2e-4 3,3 0 0 1 0,5.1e-4 3,3 0 0 1 0,5.2e-4 3,3 0 0 1 0,5.2e-4 3,3 0 0 1 0,5.1e-4 3,3 0 0 1 0,5.2e-4 3,3 0 0 1 0,5.2e-4 3,3 0 0 1 0,5.1e-4 3,3 0 0 1 0,5.2e-4 3,3 0 0 1 5.1e-4,0.007 3,3 0 0 1 0,5.2e-4 3,3 0 0 1 0,5.1e-4 3,3 0 0 1 0,5.2e-4 3,3 0 0 1 0,5.2e-4 3,3 0 0 1 0,5.1e-4 3,3 0 0 1 0,5.2e-4 3,3 0 0 1 0,5.2e-4 3,3 0 0 1 0,5.1e-4 3,3 0 0 1 0,5.2e-4 3,3 0 0 1 0,5.2e-4 3,3 0 0 1 0,5.1e-4 3,3 0 0 1 0,5.2e-4 3,3 0 0 1 0,5.2e-4 3,3 0 0 1 0,5.1e-4 3,3 0 0 1 0,5.2e-4 3,3 0 0 1 0,5.2e-4 3,3 0 0 1 0,5.2e-4 3,3 0 0 1 0,5.1e-4 3,3 0 0 1 0,5.2e-4 3,3 0 0 1 0,5.2e-4 3,3 0 0 1 0,5.1e-4 3,3 0 0 1 0,5.2e-4 3,3 0 0 1 0,5.2e-4 3,3 0 0 1 0,5.1e-4 3,3 0 0 1 0,5.2e-4 3,3 0 0 1 0,5.2e-4 3,3 0 0 1 0,5.1e-4 3,3 0 0 1 0,5.2e-4 3,3 0 0 1 0,5.2e-4 3,3 0 0 1 0,5.1e-4 3,3 0 0 1 0,5.2e-4 3,3 0 0 1 0,5.2e-4 3,3 0 0 1 0,5.1e-4 3,3 0 0 1 0,5.2e-4 3,3 0 0 1 0,5.2e-4 3,3 0 0 1 0,5.1e-4 3,3 0 0 1 0,5.2e-4 3,3 0 0 1 0,5.2e-4 3,3 0 0 1 0,5.1e-4 3,3 0 0 1 0,5.2e-4 3,3 0 0 1 0,5.2e-4 3,3 0 0 1 0,5.1e-4 3,3 0 0 1 0,5.2e-4 3,3 0 0 1 0,5.2e-4 3,3 0 0 1 0,5.1e-4 3,3 0 0 1 0,5.2e-4 3,3 0 0 1 0,5.2e-4 3,3 0 0 1 0,5.1e-4 3,3 0 0 1 0,5.2e-4 3,3 0 0 1 0,5.2e-4 3,3 0 0 1 0,5.2e-4 3,3 0 0 1 0,5.1e-4 3,3 0 0 1 0,5.2e-4 3,3 0 0 1 0,5.2e-4 3,3 0 0 1 0,5.1e-4 3,3 0 0 1 0,5.2e-4 3,3 0 0 1 0,5.2e-4 3,3 0 0 1 0,5.1e-4 3,3 0 0 1 0,5.2e-4 3,3 0 0 1 0,5.2e-4 3,3 0 0 1 0,5.1e-4 3,3 0 0 1 0,5.2e-4 3,3 0 0 1 0,5.2e-4 3,3 0 0 1 0,5.1e-4 3,3 0 0 1 0,5.2e-4 3,3 0 0 1 0,5.2e-4 3,3 0 0 1 0,5.1e-4 3,3 0 0 1 0,5.2e-4 3,3 0 0 1 0,5.2e-4 3,3 0 0 1 -0.008,0.22427 3,3 0 0 1 -0.0248,0.22272 3,3 0 0 1 -0.0419,0.22066 3,3 0 0 1 -0.0584,0.21652 3,3 0 0 1 -0.0739,0.21188 3,3 0 0 1 -0.0899,0.20567 3,3 0 0 1 -0.10438,0.19792 3,3 0 0 1 -0.11938,0.19017 3,3 0 0 1 -0.13332,0.18035 3,3 0 0 1 -0.14625,0.17002 3,3 0 0 1 -0.15864,0.15864 3,3 0 0 1 -0.17002,0.14676 3,3 0 0 1 -0.18086,0.13281 3,3 0 0 1 -0.18966,0.11938 3,3 0 0 1 -0.19844,0.1049 3,3 0 0 1 -0.20567,0.0899 3,3 0 0 1 -0.21187,0.0739 3,3 0 0 1 -0.21653,0.0584 3,3 0 0 1 -0.22065,0.0413 3,3 0 0 1 -0.22273,0.0253 3,3 0 0 1 -0.22427,0.008 3,3 0 0 1 -0.12713,-0.005 v 7.07088 a 3,3 0 0 1 0.18397,0.007 3,3 0 0 1 0.23409,0.0279 3,3 0 0 1 0.231,0.046 3,3 0 0 1 0.22634,0.0641 3,3 0 0 1 0.22118,0.0811 3,3 0 0 1 0.21394,0.0987 3,3 0 0 1 0.20567,0.11524 3,3 0 0 1 0.19585,0.13074 3,3 0 0 1 0.185,0.14625 3,3 0 0 1 0.1726,0.15968 3,3 0 0 1 0.1602,0.17311 3,3 0 0 1 0.14573,0.185 3,3 0 0 1 0.13074,0.19586 3,3 0 0 1 0.11524,0.20515 3,3 0 0 1 0.0987,0.21394 3,3 0 0 1 0.0816,0.22118 3,3 0 0 1 0.0636,0.22686 3,3 0 0 1 0.046,0.23099 3,3 0 0 1 0.0279,0.23358 3,3 0 0 1 0.009,0.23564 3,3 0 0 1 -0.0755,0.66766 3,3 0 0 1 -0.22169,0.63407 3,3 0 0 1 -0.35761,0.56896 3,3 0 0 1 -0.4749,0.47491 3,3 0 0 1 -0.56896,0.35708 3,3 0 0 1 -0.63407,0.22221 3,3 0 0 1 -0.61598,0.0692 v 2.441187 a 3,3 0 0 1 0.60255,-0.21084 3,3 0 0 1 0.66765,-0.0755 3,3 0 0 1 0.23513,0.009 3,3 0 0 1 0.2341,0.0279 3,3 0 0 1 0.23099,0.046 3,3 0 0 1 0.22686,0.0636 3,3 0 0 1 0.22066,0.0817 3,3 0 0 1 0.21394,0.0987 3,3 0 0 1 0.20567,0.11524 3,3 0 0 1 0.19585,0.13074 3,3 0 0 1 0.18501,0.14573 3,3 0 0 1 0.17311,0.1602 3,3 0 0 1 0.15968,0.1726 3,3 0 0 1 0.14573,0.185 3,3 0 0 1 0.13126,0.19585 3,3 0 0 1 0.11472,0.20568 3,3 0 0 1 0.0987,0.21394 3,3 0 0 1 0.0816,0.22117 3,3 0 0 1 0.0641,0.22634 3,3 0 0 1 0.046,0.231 3,3 0 0 1 0.0274,0.23409 3,3 0 0 1 0.009,0.23565 3,3 0 0 1 -0.0749,0.66714 3,3 0 0 1 -0.22221,0.63407 3,3 0 0 1 -0.35708,0.56896 3,3 0 0 1 -0.47543,0.4749 3,3 0 0 1 -0.56844,0.3576 3,3 0 0 1 -0.63407,0.2217 3,3 0 0 1 -0.66766,0.0754 3,3 0 0 1 -0.66766,-0.0754 3,3 0 0 1 -0.60254,-0.21084 v 7.98039 a 3,3 0 0 1 0.37052,-0.0419 3,3 0 0 1 0.23513,0.009 3,3 0 0 1 0.23409,0.0274 3,3 0 0 1 0.23099,0.046 3,3 0 0 1 0.22635,0.0641 3,3 0 0 1 0.22117,0.0816 3,3 0 0 1 0.21394,0.0987 3,3 0 0 1 0.20567,0.11472 3,3 0 0 1 0.19586,0.13126 3,3 0 0 1 0.185,0.14573 3,3 0 0 1 0.17311,0.15968 3,3 0 0 1 0.15969,0.17311 3,3 0 0 1 0.14572,0.18501 3,3 0 0 1 0.13074,0.19585 3,3 0 0 1 0.11524,0.20567 3,3 0 0 1 0.0987,0.21394 3,3 0 0 1 0.0816,0.22066 3,3 0 0 1 0.0636,0.22686 3,3 0 0 1 0.046,0.23099 3,3 0 0 1 0.0279,0.2341 3,3 0 0 1 0.009,0.23513 3,3 0 0 1 -0.0755,0.66766 3,3 0 0 1 -0.22169,0.63407 3,3 0 0 1 -0.3576,0.56895 3,3 0 0 1 -0.47491,0.47491 3,3 0 0 1 -0.56895,0.3576 3,3 0 0 1 -0.63407,0.22169 3,3 0 0 1 -0.66715,0.0754 3,3 0 0 1 -0.37052,-0.0419 v 3.96255 a 3,3 0 0 1 0.39791,-0.045 3,3 0 0 1 0.23513,0.009 3,3 0 0 1 0.23409,0.0279 3,3 0 0 1 0.231,0.046 3,3 0 0 1 0.22686,0.0636 3,3 0 0 1 0.22066,0.0816 3,3 0 0 1 0.21394,0.0987 3,3 0 0 1 0.20567,0.11524 3,3 0 0 1 0.19585,0.13074 3,3 0 0 1 0.185,0.14573 3,3 0 0 1 0.17312,0.1602 3,3 0 0 1 0.15968,0.1726 3,3 0 0 1 0.14573,0.185 3,3 0 0 1 0.13126,0.19585 3,3 0 0 1 0.11472,0.20568 3,3 0 0 1 0.0987,0.21394 3,3 0 0 1 0.0816,0.22117 3,3 0 0 1 0.0641,0.22634 3,3 0 0 1 0.046,0.231 3,3 0 0 1 0.0274,0.23409 3,3 0 0 1 0.009,0.23565 3,3 0 0 1 -0.0755,0.66714 3,3 0 0 1 -0.2217,0.63407 3,3 0 0 1 -0.3576,0.56896 3,3 0 0 1 -0.4749,0.4749 3,3 0 0 1 -0.56896,0.3576 3,3 0 0 1 -0.63407,0.2217 3,3 0 0 1 -0.66714,0.0754 3,3 0 0 1 -0.39791,-0.045 v 2.49494 h 6.33708 a 3,3 0 0 1 -0.032,-0.0915 3,3 0 0 1 -0.0755,-0.66766 3,3 0 0 1 0.0755,-0.66766 3,3 0 0 1 0.22169,-0.63407 3,3 0 0 1 0.3576,-0.56844 3,3 0 0 1 0.47491,-0.47491 3,3 0 0 1 0.56896,-0.3576 3,3 0 0 1 0.63407,-0.22169 3,3 0 0 1 0.66766,-0.0754 3,3 0 0 1 0.23512,0.009 3,3 0 0 1 0.2341,0.0274 3,3 0 0 1 0.23099,0.046 3,3 0 0 1 0.22686,0.0641 3,3 0 0 1 0.22066,0.0816 3,3 0 0 1 0.21394,0.0987 3,3 0 0 1 0.20567,0.11472 3,3 0 0 1 0.19586,0.13126 3,3 0 0 1 0.185,0.14573 3,3 0 0 1 0.17311,0.15968 3,3 0 0 1 0.15968,0.17311 3,3 0 0 1 0.14573,0.18501 3,3 0 0 1 0.13126,0.19585 3,3 0 0 1 0.11472,0.20567 3,3 0 0 1 0.0987,0.21394 3,3 0 0 1 0.0817,0.22066 3,3 0 0 1 0.0641,0.22686 3,3 0 0 1 0.046,0.23099 3,3 0 0 1 0.0274,0.2341 3,3 0 0 1 0.009,0.23513 3,3 0 0 1 -0.0749,0.66766 3,3 0 0 1 -0.032,0.0915 h 1.6769 a 3,3 0 0 1 0.0388,-0.34468 3,3 0 0 1 0.22169,-0.63407 3,3 0 0 1 0.3576,-0.56896 3,3 0 0 1 0.47491,-0.4749 3,3 0 0 1 0.56896,-0.3576 3,3 0 0 1 0.63407,-0.2217 3,3 0 0 1 0.66766,-0.0754 3,3 0 0 1 0.23512,0.009 3,3 0 0 1 0.2341,0.0279 3,3 0 0 1 0.23099,0.046 3,3 0 0 1 0.22686,0.0636 3,3 0 0 1 0.22066,0.0816 3,3 0 0 1 0.21394,0.0987 3,3 0 0 1 0.20567,0.11524 3,3 0 0 1 0.19586,0.13074 3,3 0 0 1 0.185,0.14573 3,3 0 0 1 0.17311,0.16019 3,3 0 0 1 0.15968,0.1726 3,3 0 0 1 0.14573,0.185 3,3 0 0 1 0.13126,0.19586 3,3 0 0 1 0.11472,0.20567 3,3 0 0 1 0.0987,0.21394 3,3 0 0 1 0.0816,0.22118 3,3 0 0 1 0.0641,0.22634 3,3 0 0 1 0.046,0.23099 3,3 0 0 1 0.0171,0.14676 h 4.62142 a 3,3 0 0 1 0.0677,-0.60203 3,3 0 0 1 0.22221,-0.63407 3,3 0 0 1 0.35709,-0.56896 3,3 0 0 1 0.47542,-0.4749 3,3 0 0 1 0.56844,-0.3576 3,3 0 0 1 0.63407,-0.22169 3,3 0 0 1 0.66766,-0.0754 3,3 0 0 1 0.23565,0.009 3,3 0 0 1 0.23357,0.0274 3,3 0 0 1 0.231,0.046 3,3 0 0 1 0.22686,0.0641 3,3 0 0 1 0.22117,0.0816 3,3 0 0 1 0.21394,0.0987 3,3 0 0 1 0.20567,0.11472 3,3 0 0 1 0.19586,0.13126 3,3 0 0 1 0.185,0.14573 3,3 0 0 1 0.1726,0.15968 3,3 0 0 1 0.1602,0.17311 3,3 0 0 1 0.14572,0.185 3,3 0 0 1 0.13074,0.19586 3,3 0 0 1 0.11524,0.20567 3,3 0 0 1 0.0987,0.21394 3,3 0 0 1 0.0811,0.22066 3,3 0 0 1 0.0641,0.22686 3,3 0 0 1 0.046,0.23099 3,3 0 0 1 0.0279,0.2341 3,3 0 0 1 0.007,0.17001 h 5.27255 a 3,3 0 0 1 -0.002,-0.0124 3,3 0 0 1 0.0749,-0.66766 3,3 0 0 1 0.22221,-0.63407 3,3 0 0 1 0.35708,-0.56844 3,3 0 0 1 0.47542,-0.47542 3,3 0 0 1 0.56845,-0.35709 3,3 0 0 1 0.63406,-0.22221 3,3 0 0 1 0.66766,-0.0749 3,3 0 0 1 0.23565,0.009 3,3 0 0 1 0.23358,0.0274 3,3 0 0 1 0.23099,0.046 3,3 0 0 1 0.22686,0.0641 3,3 0 0 1 0.22117,0.0816 3,3 0 0 1 0.21395,0.0987 3,3 0 0 1 0.20567,0.11472 3,3 0 0 1 0.19585,0.13125 3,3 0 0 1 0.185,0.14573 3,3 0 0 1 0.1726,0.15968 3,3 0 0 1 0.1602,0.17312 3,3 0 0 1 0.14573,0.185 3,3 0 0 1 0.13074,0.19585 3,3 0 0 1 0.11524,0.20568 3,3 0 0 1 0.0987,0.21394 3,3 0 0 1 0.0811,0.22065 3,3 0 0 1 0.0641,0.22686 3,3 0 0 1 0.046,0.231 3,3 0 0 1 0.0279,0.23409 3,3 0 0 1 0.009,0.23513 3,3 0 0 1 -0.002,0.0124 h 3.59719 a 3,3 0 0 1 0.0512,-0.45423 3,3 0 0 1 0.22169,-0.63407 3,3 0 0 1 0.3576,-0.56896 3,3 0 0 1 0.47491,-0.47491 3,3 0 0 1 0.56896,-0.3576 3,3 0 0 1 0.63407,-0.22169 3,3 0 0 1 0.66766,-0.0755 3,3 0 0 1 0.23512,0.009 3,3 0 0 1 0.2341,0.0279 3,3 0 0 1 0.23099,0.046 3,3 0 0 1 0.22686,0.0636 3,3 0 0 1 0.22066,0.0817 3,3 0 0 1 0.21394,0.0987 3,3 0 0 1 0.20567,0.11524 3,3 0 0 1 0.19586,0.13074 3,3 0 0 1 0.185,0.14573 3,3 0 0 1 0.17311,0.1602 3,3 0 0 1 0.15968,0.1726 3,3 0 0 1 0.14625,0.185 3,3 0 0 1 0.13074,0.19585 3,3 0 0 1 0.11472,0.20568 3,3 0 0 1 0.0987,0.21394 3,3 0 0 1 0.0816,0.22117 3,3 0 0 1 0.0641,0.22634 3,3 0 0 1 0.046,0.231 3,3 0 0 1 0.0274,0.23409 3,3 0 0 1 0.001,0.0222 h 8.24549 v -2.62826 a 3,3 0 0 1 -0.339,-0.11834 3,3 0 0 1 -0.56896,-0.3576 3,3 0 0 1 -0.4749,-0.47491 3,3 0 0 1 -0.35761,-0.56895 3,3 0 0 1 -0.22169,-0.63407 3,3 0 0 1 -0.0754,-0.66766 3,3 0 0 1 0.0754,-0.66715 3,3 0 0 1 0.22169,-0.63407 3,3 0 0 1 0.35761,-0.56895 3,3 0 0 1 0.4749,-0.47491 3,3 0 0 1 0.56896,-0.3576 3,3 0 0 1 0.339,-0.11834 v -4.22352 a 3,3 0 0 1 -0.36639,-0.12815 3,3 0 0 1 -0.56896,-0.3576 3,3 0 0 1 -0.4749,-0.47491 3,3 0 0 1 -0.3576,-0.56896 3,3 0 0 1 -0.2217,-0.63407 3,3 0 0 1 -0.0754,-0.66766 3,3 0 0 1 0.0754,-0.66766 3,3 0 0 1 0.2217,-0.63407 3,3 0 0 1 0.3576,-0.56844 3,3 0 0 1 0.4749,-0.47542 3,3 0 0 1 0.56896,-0.35708 3,3 0 0 1 0.36639,-0.12816 v -8.45375 a 3,3 0 0 1 -0.0357,-0.0222 3,3 0 0 1 -0.47491,-0.47491 3,3 0 0 1 -0.35708,-0.56895 3,3 0 0 1 -0.22221,-0.63407 3,3 0 0 1 -0.0749,-0.66766 3,3 0 0 1 0.0749,-0.66766 3,3 0 0 1 0.22221,-0.63407 3,3 0 0 1 0.35708,-0.56844 3,3 0 0 1 0.47491,-0.47543 3,3 0 0 1 0.0357,-0.0222 v -2.839097 a 3,3 0 0 1 -0.154,-0.0176 3,3 0 0 1 -0.63407,-0.22169 3,3 0 0 1 -0.56896,-0.3576 3,3 0 0 1 -0.4749,-0.47491 3,3 0 0 1 -0.3576,-0.56844 3,3 0 0 1 -0.2217,-0.63459 3,3 0 0 1 -0.0754,-0.66714 3,3 0 0 1 0.0754,-0.66766 3,3 0 0 1 0.2217,-0.63407 3,3 0 0 1 0.3576,-0.56896 3,3 0 0 1 0.4749,-0.4749 3,3 0 0 1 0.56896,-0.3576 3,3 0 0 1 0.63407,-0.2217 3,3 0 0 1 0.154,-0.0176 v -7.20524 a 3,3 0 0 1 -0.60978,-0.21342 3,3 0 0 1 -0.56845,-0.35761 3,3 0 0 1 -0.47542,-0.4749 3,3 0 0 1 -0.35708,-0.56896 3,3 0 0 1 -0.22221,-0.63407 3,3 0 0 1 -0.0749,-0.66714 3,3 0 0 1 0.0749,-0.66766 3,3 0 0 1 0.22221,-0.63407 3,3 0 0 1 0.35708,-0.56895 3,3 0 0 1 0.47542,-0.47491 3,3 0 0 1 0.56845,-0.3576 3,3 0 0 1 0.60978,-0.21342 V 73.70079 h -8.35712 a 3,3 0 0 1 -0.0341,0.304374 3,3 0 0 1 -0.22169,0.63407 3,3 0 0 1 -0.3576,0.568958 3,3 0 0 1 -0.47491,0.474906 3,3 0 0 1 -0.56896,0.357601 3,3 0 0 1 -0.63407,0.221692 3,3 0 0 1 -0.66766,0.07545 3,3 0 0 1 -0.66766,-0.07545 3,3 0 0 1 -0.63407,-0.221692 3,3 0 0 1 -0.56844,-0.357601 3,3 0 0 1 -0.47542,-0.474906 3,3 0 0 1 -0.35709,-0.568958 3,3 0 0 1 -0.22221,-0.63407 3,3 0 0 1 -0.0341,-0.304374 h -3.59925 a 3,3 0 0 1 -0.0103,0.09043 3,3 0 0 1 -0.2217,0.63407 3,3 0 0 1 -0.35708,0.568957 3,3 0 0 1 -0.47542,0.474907 3,3 0 0 1 -0.56844,0.357601 3,3 0 0 1 -0.63407,0.221692 3,3 0 0 1 -0.66766,0.07493 3,3 0 0 1 -0.66766,-0.07493 3,3 0 0 1 -0.63407,-0.221692 3,3 0 0 1 -0.56896,-0.357601 3,3 0 0 1 -0.47491,-0.474907 3,3 0 0 1 -0.3576,-0.568957 3,3 0 0 1 -0.22169,-0.63407 3,3 0 0 1 -0.0103,-0.09043 h -5.38985 a 3,3 0 0 1 -0.0191,0.167949 3,3 0 0 1 -0.22169,0.634069 3,3 0 0 1 -0.3576,0.568958 3,3 0 0 1 -0.47491,0.474906 3,3 0 0 1 -0.56844,0.357601 3,3 0 0 1 -0.63407,0.221692 3,3 0 0 1 -0.66766,0.07545 3,3 0 0 1 -0.66766,-0.07545 3,3 0 0 1 -0.63407,-0.221692 3,3 0 0 1 -0.56896,-0.357601 3,3 0 0 1 -0.4749,-0.474906 3,3 0 0 1 -0.35761,-0.568958 3,3 0 0 1 -0.22169,-0.634069 3,3 0 0 1 -0.0191,-0.167949 h -4.67827 a 3,3 0 0 1 -0.0475,0.425297 3,3 0 0 1 -0.22169,0.63407 3,3 0 0 1 -0.3576,0.568958 3,3 0 0 1 -0.4749,0.474906 3,3 0 0 1 -0.56896,0.357601 3,3 0 0 1 -0.63407,0.221692 3,3 0 0 1 -0.66766,0.07545 3,3 0 0 1 -0.66766,-0.07545 3,3 0 0 1 -0.63407,-0.221692 3,3 0 0 1 -0.56844,-0.357601 3,3 0 0 1 -0.47542,-0.474906 3,3 0 0 1 -0.35709,-0.568958 3,3 0 0 1 -0.22221,-0.63407 3,3 0 0 1 -0.0475,-0.425297 h -1.87172 a 3,3 0 0 1 -0.34365,0.546737 3,3 0 0 1 -0.4749,0.474906 3,3 0 0 1 -0.56896,0.357601 3,3 0 0 1 -0.63407,0.221692 3,3 0 0 1 -0.66766,0.07545 3,3 0 0 1 -0.66766,-0.07545 3,3 0 0 1 -0.63407,-0.221692 3,3 0 0 1 -0.56844,-0.357601 3,3 0 0 1 -0.47542,-0.474906 3,3 0 0 1 -0.34313,-0.546737 z" />
      <rect
         style="display:inline;fill:#53c659;fill-opacity:0.763435;fill-rule:evenodd;stroke:none;stroke-width:0.189296;stroke-linejoin:bevel;stroke-miterlimit:3.9;stroke-dasharray:none;stroke-opacity:0.682353;paint-order:fill markers stroke"
         id="rect6782"
         width="5"
         height="5"
         x="129.93198"
         y="65.155037" />
      <rect
         style="display:inline;fill:#488212;fill-opacity:0.208495;fill-rule:evenodd;stroke:none;stroke-width:0.189296;stroke-linejoin:bevel;stroke-miterlimit:3.9;stroke-dasharray:none;stroke-opacity:0.682353;paint-order:fill markers stroke"
         id="rect6782-9"
         width="5"
         height="5"
         x="153.99898"
         y="65.155289" />
      <text
         xml:space="preserve"
         style="font-style:normal;font-variant:normal;font-weight:normal;font-stretch:normal;font-size:2.82223px;font-family:Ubuntu;-inkscape-font-specification:'Ubuntu, Normal';font-variant-ligatures:normal;font-variant-caps:normal;font-variant-numeric:normal;font-variant-east-asian:normal;text-align:center;text-anchor:middle;display:inline;fill:#53c659;fill-opacity:0.763435;fill-rule:evenodd;stroke:none;stroke-width:0.189296;stroke-linejoin:bevel;stroke-miterlimit:3.9;stroke-dasharray:none;stroke-opacity:0.682353;paint-order:fill markers stroke"
         x="142.04768"
         y="68.521484"
         id="text7021"><tspan
           sodipodi:role="line"
           id="tspan7019"
           style="font-style:normal;font-variant:normal;font-weight:bold;font-stretch:normal;font-size:2.82223px;font-family:'Times New Roman';-inkscape-font-specification:'Times New Roman, Bold';font-variant-ligatures:normal;font-variant-caps:normal;font-variant-numeric:normal;font-variant-east-asian:normal;fill:#000000;fill-opacity:1;stroke-width:0.189296;stroke-dasharray:none"
           x="142.04768"
           y="68.521484">Particles</tspan></text>
      <text
         xml:space="preserve"
         style="font-style:normal;font-variant:normal;font-weight:normal;font-stretch:normal;font-size:2.82223px;font-family:Ubuntu;-inkscape-font-specification:'Ubuntu, Normal';font-variant-ligatures:normal;font-variant-caps:normal;font-variant-numeric:normal;font-variant-east-asian:normal;text-align:center;text-anchor:middle;display:inline;fill:#53c659;fill-opacity:0.763435;fill-rule:evenodd;stroke:none;stroke-width:0.189296;stroke-linejoin:bevel;stroke-miterlimit:3.9;stroke-dasharray:none;stroke-opacity:0.682353;paint-order:fill markers stroke"
         x="165.65427"
         y="68.521858"
         id="text7021-0"><tspan
           sodipodi:role="line"
           id="tspan7019-4"
           style="font-style:normal;font-variant:normal;font-weight:bold;font-stretch:normal;font-size:2.82223px;font-family:'Times New Roman';-inkscape-font-specification:'Times New Roman, Bold';font-variant-ligatures:normal;font-variant-caps:normal;font-variant-numeric:normal;font-variant-east-asian:normal;fill:#000000;fill-opacity:1;stroke-width:0.189296;stroke-dasharray:none"
           x="165.65427"
           y="68.521858">Matrix</tspan></text>
      <path
         id="rect234"
         style="display:inline;fill:#53c659;fill-opacity:0.680496;fill-rule:evenodd;stroke:#000000;stroke-width:0.189296;stroke-linejoin:bevel;stroke-miterlimit:3.9;stroke-dasharray:none;stroke-opacity:1;paint-order:fill markers stroke"
         d="m 122.89615,85.940168 a 3,3 0 0 0 0.12713,0.0047 3,3 0 0 0 0.22427,-0.0083 3,3 0 0 0 0.22273,-0.02532 3,3 0 0 0 0.22066,-0.04134 3,3 0 0 0 0.21652,-0.05839 3,3 0 0 0 0.21187,-0.0739 3,3 0 0 0 0.20568,-0.08992 3,3 0 0 0 0.19843,-0.104903 3,3 0 0 0 0.18966,-0.119373 3,3 0 0 0 0.18086,-0.132808 3,3 0 0 0 0.17002,-0.146761 3,3 0 0 0 0.15865,-0.158647 3,3 0 0 0 0.14624,-0.170016 3,3 0 0 0 0.13333,-0.18035 3,3 0 0 0 0.11937,-0.19017 3,3 0 0 0 0.10438,-0.19792 3,3 0 0 0 0.0899,-0.205672 3,3 0 0 0 0.0739,-0.211874 3,3 0 0 0 0.0584,-0.216524 3,3 0 0 0 0.0419,-0.220658 3,3 0 0 0 0.0248,-0.222726 3,3 0 0 0 0.008,-0.224276 3,3 0 0 0 -0.001,-0.07751 3,3 0 0 0 -0.003,-0.077 3,3 0 0 0 -0.005,-0.077 3,3 0 0 0 -0.007,-0.077 3,3 0 0 0 -0.009,-0.077 3,3 0 0 0 -0.0108,-0.07648 3,3 0 0 0 -0.0129,-0.07596 3,3 0 0 0 -0.0145,-0.07597 3,3 0 0 0 -0.017,-0.07545 3,3 0 0 0 -0.0186,-0.07493 3,3 0 0 0 -0.0207,-0.07441 3,3 0 0 0 -0.0227,-0.0739 3,3 0 0 0 -0.0243,-0.07286 3,3 0 0 0 -0.0264,-0.07286 3,3 0 0 0 -0.0279,-0.07183 3,3 0 0 0 -0.03,-0.07131 3,3 0 0 0 -0.032,-0.07028 3,3 0 0 0 -0.0336,-0.06976 3,3 0 0 0 -0.0357,-0.06873 3,3 0 0 0 -0.0372,-0.0677 3,3 0 0 0 -0.0388,-0.06666 3,3 0 0 0 -0.0408,-0.06563 3,3 0 0 0 -0.0419,-0.0646 3,3 0 0 0 -0.0439,-0.06356 3,3 0 0 0 -0.046,-0.06253 3,3 0 0 0 -0.047,-0.06098 3,3 0 0 0 -0.0486,-0.05994 3,3 0 0 0 -0.0501,-0.05891 3,3 0 0 0 -0.0517,-0.05736 3,3 0 0 0 -0.0532,-0.05581 3,3 0 0 0 -0.0548,-0.05478 3,3 0 0 0 -0.0563,-0.05323 3,3 0 0 0 -0.0574,-0.05168 3,3 0 0 0 -0.0584,-0.05013 3,3 0 0 0 -0.0599,-0.04858 3,3 0 0 0 -0.0615,-0.04754 3,3 0 0 0 -0.062,-0.04547 3,3 0 0 0 -0.0636,-0.04393 3,3 0 0 0 -0.0646,-0.04237 3,3 0 0 0 -0.0656,-0.04031 3,3 0 0 0 -0.0672,-0.03927 3,3 0 0 0 -0.0677,-0.03669 3,3 0 0 0 -0.0682,-0.03566 3,3 0 0 0 -0.0698,-0.03359 3,3 0 0 0 -0.0703,-0.03204 3,3 0 0 0 -0.0713,-0.02997 3,3 0 0 0 -0.0718,-0.02791 3,3 0 0 0 -0.0729,-0.02635 3,3 0 0 0 -0.0729,-0.02481 3,3 0 0 0 -0.0739,-0.02222 3,3 0 0 0 -0.0749,-0.02067 3,3 0 0 0 -0.0749,-0.0186 3,3 0 0 0 -0.0749,-0.01705 3,3 0 0 0 -0.076,-0.01447 3,3 0 0 0 -0.0765,-0.01292 3,3 0 0 0 -0.0765,-0.01085 3,3 0 0 0 -0.0765,-0.0093 3,3 0 0 0 -0.077,-0.0067 3,3 0 0 0 -0.077,-0.0052 3,3 0 0 0 -0.077,-0.0031 3,3 0 0 0 -0.0775,-0.001 3,3 0 0 0 -0.12712,0.0052 z" />
      <path
         id="path5584"
         style="display:inline;fill:#53c659;fill-opacity:0.680496;fill-rule:evenodd;stroke:#000000;stroke-width:0.189296;stroke-linejoin:bevel;stroke-miterlimit:3.9;stroke-dasharray:none;stroke-opacity:1;paint-order:fill markers stroke"
         d="m 122.89615,99.002937 a 3,3 0 0 0 0.61599,-0.06925 3,3 0 0 0 0.63407,-0.222209 3,3 0 0 0 0.56895,-0.357084 3,3 0 0 0 0.47491,-0.474907 3,3 0 0 0 0.3576,-0.568957 3,3 0 0 0 0.22169,-0.63407 3,3 0 0 0 0.0754,-0.66766 3,3 0 0 0 -0.009,-0.235644 3,3 0 0 0 -0.0279,-0.233578 3,3 0 0 0 -0.046,-0.230993 3,3 0 0 0 -0.0636,-0.22686 3,3 0 0 0 -0.0816,-0.221175 3,3 0 0 0 -0.0987,-0.21394 3,3 0 0 0 -0.11524,-0.205156 3,3 0 0 0 -0.13074,-0.195853 3,3 0 0 0 -0.14573,-0.185002 3,3 0 0 0 -0.16019,-0.173116 3,3 0 0 0 -0.1726,-0.15968 3,3 0 0 0 -0.185,-0.146245 3,3 0 0 0 -0.19586,-0.130741 3,3 0 0 0 -0.20567,-0.115238 3,3 0 0 0 -0.21394,-0.0987 3,3 0 0 0 -0.22117,-0.08113 3,3 0 0 0 -0.22635,-0.06408 3,3 0 0 0 -0.23099,-0.04599 3,3 0 0 0 -0.2341,-0.02791 3,3 0 0 0 -0.18396,-0.0067 z" />
      <path
         id="path5593"
         style="display:inline;fill:#53c659;fill-opacity:0.680496;fill-rule:evenodd;stroke:#000000;stroke-width:0.189296;stroke-linejoin:bevel;stroke-miterlimit:3.9;stroke-dasharray:none;stroke-opacity:1;paint-order:fill markers stroke"
         d="m 122.89615,106.87171 a 3,3 0 0 0 0.60255,0.21084 3,3 0 0 0 0.66766,0.0755 3,3 0 0 0 0.66766,-0.0755 3,3 0 0 0 0.63407,-0.22169 3,3 0 0 0 0.56844,-0.35761 3,3 0 0 0 0.47542,-0.4749 3,3 0 0 0 0.35709,-0.56896 3,3 0 0 0 0.22221,-0.63407 3,3 0 0 0 0.0749,-0.66714 3,3 0 0 0 -0.009,-0.23565 3,3 0 0 0 -0.0274,-0.23409 3,3 0 0 0 -0.046,-0.23099 3,3 0 0 0 -0.0641,-0.22635 3,3 0 0 0 -0.0816,-0.22117 3,3 0 0 0 -0.0987,-0.21394 3,3 0 0 0 -0.11473,-0.20567 3,3 0 0 0 -0.13125,-0.19586 3,3 0 0 0 -0.14573,-0.185 3,3 0 0 0 -0.15968,-0.1726 3,3 0 0 0 -0.17312,-0.1602 3,3 0 0 0 -0.185,-0.14572 3,3 0 0 0 -0.19585,-0.13075 3,3 0 0 0 -0.20568,-0.11523 3,3 0 0 0 -0.21394,-0.0987 3,3 0 0 0 -0.22065,-0.0816 3,3 0 0 0 -0.22686,-0.0636 3,3 0 0 0 -0.231,-0.046 3,3 0 0 0 -0.23409,-0.0279 3,3 0 0 0 -0.23513,-0.009 3,3 0 0 0 -0.66766,0.0755 3,3 0 0 0 -0.60255,0.21084 z" />
      <path
         id="path5596"
         style="display:inline;fill:#53c659;fill-opacity:0.680496;fill-rule:evenodd;stroke:#000000;stroke-width:0.189296;stroke-linejoin:bevel;stroke-miterlimit:3.9;stroke-dasharray:none;stroke-opacity:1;paint-order:fill markers stroke"
         d="m 122.89615,120.76853 a 3,3 0 0 0 0.37052,0.0419 3,3 0 0 0 0.66715,-0.0755 3,3 0 0 0 0.63406,-0.22169 3,3 0 0 0 0.56896,-0.3576 3,3 0 0 0 0.47491,-0.47491 3,3 0 0 0 0.3576,-0.56895 3,3 0 0 0 0.22169,-0.63407 3,3 0 0 0 0.0755,-0.66766 3,3 0 0 0 -0.009,-0.23513 3,3 0 0 0 -0.0279,-0.23409 3,3 0 0 0 -0.046,-0.231 3,3 0 0 0 -0.0636,-0.22686 3,3 0 0 0 -0.0817,-0.22066 3,3 0 0 0 -0.0987,-0.21394 3,3 0 0 0 -0.11524,-0.20567 3,3 0 0 0 -0.13074,-0.19585 3,3 0 0 0 -0.14573,-0.18501 3,3 0 0 0 -0.15968,-0.17311 3,3 0 0 0 -0.17311,-0.15968 3,3 0 0 0 -0.185,-0.14573 3,3 0 0 0 -0.19586,-0.13126 3,3 0 0 0 -0.20567,-0.11472 3,3 0 0 0 -0.21394,-0.0987 3,3 0 0 0 -0.22118,-0.0817 3,3 0 0 0 -0.22634,-0.0641 3,3 0 0 0 -0.23099,-0.046 3,3 0 0 0 -0.2341,-0.0274 3,3 0 0 0 -0.23512,-0.009 3,3 0 0 0 -0.37052,0.0419 z" />
      <path
         id="path5599"
         style="display:inline;fill:#53c659;fill-opacity:0.680496;fill-rule:evenodd;stroke:#000000;stroke-width:0.189296;stroke-linejoin:bevel;stroke-miterlimit:3.9;stroke-dasharray:none;stroke-opacity:1;paint-order:fill markers stroke"
         d="m 122.89615,130.64132 a 3,3 0 0 0 0.39791,0.045 3,3 0 0 0 0.66714,-0.0755 3,3 0 0 0 0.63407,-0.2217 3,3 0 0 0 0.56896,-0.3576 3,3 0 0 0 0.47491,-0.4749 3,3 0 0 0 0.3576,-0.56896 3,3 0 0 0 0.22169,-0.63407 3,3 0 0 0 0.0755,-0.66714 3,3 0 0 0 -0.009,-0.23565 3,3 0 0 0 -0.0274,-0.23409 3,3 0 0 0 -0.046,-0.231 3,3 0 0 0 -0.0641,-0.22634 3,3 0 0 0 -0.0816,-0.22117 3,3 0 0 0 -0.0987,-0.21394 3,3 0 0 0 -0.11472,-0.20568 3,3 0 0 0 -0.13126,-0.19585 3,3 0 0 0 -0.14573,-0.185 3,3 0 0 0 -0.15968,-0.1726 3,3 0 0 0 -0.17311,-0.1602 3,3 0 0 0 -0.185,-0.14573 3,3 0 0 0 -0.19586,-0.13074 3,3 0 0 0 -0.20567,-0.11523 3,3 0 0 0 -0.21394,-0.0987 3,3 0 0 0 -0.22066,-0.0816 3,3 0 0 0 -0.22686,-0.0636 3,3 0 0 0 -0.23099,-0.046 3,3 0 0 0 -0.2341,-0.0279 3,3 0 0 0 -0.23512,-0.009 3,3 0 0 0 -0.39791,0.045 z" />
      <path
         id="path5602"
         style="display:inline;fill:#53c659;fill-opacity:0.680496;fill-rule:evenodd;stroke:#000000;stroke-width:0.189296;stroke-linejoin:bevel;stroke-miterlimit:3.9;stroke-dasharray:none;stroke-opacity:1;paint-order:fill markers stroke"
         d="m 135.01893,133.13625 a 3,3 0 0 0 0.032,-0.0915 3,3 0 0 0 0.0749,-0.66766 3,3 0 0 0 -0.009,-0.23512 3,3 0 0 0 -0.0274,-0.2341 3,3 0 0 0 -0.046,-0.23099 3,3 0 0 0 -0.0641,-0.22686 3,3 0 0 0 -0.0816,-0.22066 3,3 0 0 0 -0.0987,-0.21394 3,3 0 0 0 -0.11472,-0.20567 3,3 0 0 0 -0.13126,-0.19586 3,3 0 0 0 -0.14573,-0.185 3,3 0 0 0 -0.15968,-0.17311 3,3 0 0 0 -0.17312,-0.15968 3,3 0 0 0 -0.185,-0.14573 3,3 0 0 0 -0.19585,-0.13126 3,3 0 0 0 -0.20567,-0.11472 3,3 0 0 0 -0.21394,-0.0987 3,3 0 0 0 -0.22066,-0.0816 3,3 0 0 0 -0.22686,-0.0641 3,3 0 0 0 -0.231,-0.046 3,3 0 0 0 -0.23409,-0.0274 3,3 0 0 0 -0.23513,-0.009 3,3 0 0 0 -0.66766,0.0755 3,3 0 0 0 -0.63407,0.22169 3,3 0 0 0 -0.56895,0.3576 3,3 0 0 0 -0.47491,0.47491 3,3 0 0 0 -0.3576,0.56844 3,3 0 0 0 -0.22169,0.63407 3,3 0 0 0 -0.0754,0.66766 3,3 0 0 0 0.0754,0.66766 3,3 0 0 0 0.032,0.0915 z" />
      <path
         id="path5605"
         style="display:inline;fill:#53c659;fill-opacity:0.680496;fill-rule:evenodd;stroke:#000000;stroke-width:0.189296;stroke-linejoin:bevel;stroke-miterlimit:3.9;stroke-dasharray:none;stroke-opacity:1;paint-order:fill markers stroke"
         d="m 142.63965,133.13625 a 3,3 0 0 0 -0.017,-0.14676 3,3 0 0 0 -0.046,-0.23099 3,3 0 0 0 -0.0641,-0.22634 3,3 0 0 0 -0.0816,-0.22118 3,3 0 0 0 -0.0987,-0.21394 3,3 0 0 0 -0.11473,-0.20567 3,3 0 0 0 -0.13125,-0.19586 3,3 0 0 0 -0.14573,-0.185 3,3 0 0 0 -0.15968,-0.1726 3,3 0 0 0 -0.17312,-0.16019 3,3 0 0 0 -0.185,-0.14573 3,3 0 0 0 -0.19585,-0.13074 3,3 0 0 0 -0.20568,-0.11524 3,3 0 0 0 -0.21394,-0.0987 3,3 0 0 0 -0.22065,-0.0816 3,3 0 0 0 -0.22686,-0.0636 3,3 0 0 0 -0.231,-0.046 3,3 0 0 0 -0.23409,-0.0279 3,3 0 0 0 -0.23513,-0.009 3,3 0 0 0 -0.66766,0.0754 3,3 0 0 0 -0.63407,0.22169 3,3 0 0 0 -0.56896,0.3576 3,3 0 0 0 -0.4749,0.47491 3,3 0 0 0 -0.3576,0.56896 3,3 0 0 0 -0.2217,0.63407 3,3 0 0 0 -0.0387,0.34468 z" />
      <path
         id="path5608"
         style="display:inline;fill:#53c659;fill-opacity:0.680496;fill-rule:evenodd;stroke:#000000;stroke-width:0.189296;stroke-linejoin:bevel;stroke-miterlimit:3.9;stroke-dasharray:none;stroke-opacity:1;paint-order:fill markers stroke"
         d="m 153.25141,133.13625 a 3,3 0 0 0 -0.007,-0.17001 3,3 0 0 0 -0.0279,-0.2341 3,3 0 0 0 -0.046,-0.23099 3,3 0 0 0 -0.0641,-0.22686 3,3 0 0 0 -0.0811,-0.22066 3,3 0 0 0 -0.0987,-0.21394 3,3 0 0 0 -0.11524,-0.20567 3,3 0 0 0 -0.13074,-0.19585 3,3 0 0 0 -0.14573,-0.18501 3,3 0 0 0 -0.1602,-0.17311 3,3 0 0 0 -0.1726,-0.15968 3,3 0 0 0 -0.185,-0.14573 3,3 0 0 0 -0.19585,-0.13126 3,3 0 0 0 -0.20567,-0.11472 3,3 0 0 0 -0.21394,-0.0987 3,3 0 0 0 -0.22118,-0.0816 3,3 0 0 0 -0.22686,-0.0641 3,3 0 0 0 -0.23099,-0.046 3,3 0 0 0 -0.23358,-0.0274 3,3 0 0 0 -0.23564,-0.009 3,3 0 0 0 -0.66766,0.0754 3,3 0 0 0 -0.63407,0.22169 3,3 0 0 0 -0.56844,0.3576 3,3 0 0 0 -0.47543,0.47491 3,3 0 0 0 -0.35708,0.56896 3,3 0 0 0 -0.22221,0.63407 3,3 0 0 0 -0.0677,0.60203 z" />
      <path
         id="path5611"
         style="display:inline;fill:#53c659;fill-opacity:0.680496;fill-rule:evenodd;stroke:#000000;stroke-width:0.189296;stroke-linejoin:bevel;stroke-miterlimit:3.9;stroke-dasharray:none;stroke-opacity:1;paint-order:fill markers stroke"
         d="m 164.521,133.13625 a 3,3 0 0 0 0.002,-0.0124 3,3 0 0 0 -0.009,-0.23512 3,3 0 0 0 -0.0279,-0.2341 3,3 0 0 0 -0.046,-0.23099 3,3 0 0 0 -0.0641,-0.22686 3,3 0 0 0 -0.0811,-0.22066 3,3 0 0 0 -0.0987,-0.21394 3,3 0 0 0 -0.11524,-0.20567 3,3 0 0 0 -0.13074,-0.19586 3,3 0 0 0 -0.14573,-0.185 3,3 0 0 0 -0.16019,-0.17311 3,3 0 0 0 -0.1726,-0.15968 3,3 0 0 0 -0.185,-0.14573 3,3 0 0 0 -0.19586,-0.13126 3,3 0 0 0 -0.20567,-0.11472 3,3 0 0 0 -0.21394,-0.0987 3,3 0 0 0 -0.22118,-0.0816 3,3 0 0 0 -0.22685,-0.0641 3,3 0 0 0 -0.231,-0.046 3,3 0 0 0 -0.23358,-0.0274 3,3 0 0 0 -0.23564,-0.009 3,3 0 0 0 -0.66766,0.0749 3,3 0 0 0 -0.63407,0.22221 3,3 0 0 0 -0.56844,0.35708 3,3 0 0 0 -0.47542,0.47543 3,3 0 0 0 -0.35709,0.56843 3,3 0 0 0 -0.22221,0.63407 3,3 0 0 0 -0.0749,0.66766 3,3 0 0 0 0.002,0.0124 z" />
      <path
         id="path5614"
         style="display:inline;fill:#53c659;fill-opacity:0.680496;fill-rule:evenodd;stroke:#000000;stroke-width:0.189296;stroke-linejoin:bevel;stroke-miterlimit:3.9;stroke-dasharray:none;stroke-opacity:1;paint-order:fill markers stroke"
         d="m 174.08579,133.13625 a 3,3 0 0 0 -0.001,-0.0222 3,3 0 0 0 -0.0274,-0.23409 3,3 0 0 0 -0.046,-0.23099 3,3 0 0 0 -0.0641,-0.22635 3,3 0 0 0 -0.0816,-0.22117 3,3 0 0 0 -0.0987,-0.21394 3,3 0 0 0 -0.11472,-0.20567 3,3 0 0 0 -0.13074,-0.19586 3,3 0 0 0 -0.14625,-0.185 3,3 0 0 0 -0.15968,-0.1726 3,3 0 0 0 -0.17311,-0.1602 3,3 0 0 0 -0.185,-0.14572 3,3 0 0 0 -0.19586,-0.13075 3,3 0 0 0 -0.20567,-0.11523 3,3 0 0 0 -0.21394,-0.0987 3,3 0 0 0 -0.22066,-0.0817 3,3 0 0 0 -0.22686,-0.0636 3,3 0 0 0 -0.23099,-0.046 3,3 0 0 0 -0.2341,-0.0279 3,3 0 0 0 -0.23512,-0.009 3,3 0 0 0 -0.66766,0.0755 3,3 0 0 0 -0.63407,0.22169 3,3 0 0 0 -0.56896,0.3576 3,3 0 0 0 -0.47491,0.47491 3,3 0 0 0 -0.3576,0.56895 3,3 0 0 0 -0.22169,0.63407 3,3 0 0 0 -0.0512,0.45424 z" />
      <path
         id="path5617"
         style="display:inline;fill:#53c659;fill-opacity:0.680496;fill-rule:evenodd;stroke:#000000;stroke-width:0.189296;stroke-linejoin:bevel;stroke-miterlimit:3.9;stroke-dasharray:none;stroke-opacity:1;paint-order:fill markers stroke"
         d="m 182.33128,124.86544 a 3,3 0 0 0 -0.33899,0.11834 3,3 0 0 0 -0.56896,0.3576 3,3 0 0 0 -0.47491,0.47491 3,3 0 0 0 -0.3576,0.56895 3,3 0 0 0 -0.22169,0.63408 3,3 0 0 0 -0.0755,0.66714 3,3 0 0 0 0.0755,0.66766 3,3 0 0 0 0.22169,0.63407 3,3 0 0 0 0.3576,0.56895 3,3 0 0 0 0.47491,0.47491 3,3 0 0 0 0.56896,0.3576 3,3 0 0 0 0.33899,0.11834 z" />
      <path
         id="path5620"
         style="display:inline;fill:#53c659;fill-opacity:0.680496;fill-rule:evenodd;stroke:#000000;stroke-width:0.189296;stroke-linejoin:bevel;stroke-miterlimit:3.9;stroke-dasharray:none;stroke-opacity:1;paint-order:fill markers stroke"
         d="m 182.33128,114.97974 a 3,3 0 0 0 -0.36638,0.12816 3,3 0 0 0 -0.56896,0.35708 3,3 0 0 0 -0.47491,0.47542 3,3 0 0 0 -0.3576,0.56845 3,3 0 0 0 -0.22169,0.63407 3,3 0 0 0 -0.0754,0.66766 3,3 0 0 0 0.0754,0.66765 3,3 0 0 0 0.22169,0.63407 3,3 0 0 0 0.3576,0.56896 3,3 0 0 0 0.47491,0.47491 3,3 0 0 0 0.56896,0.3576 3,3 0 0 0 0.36638,0.12816 z" />
      <path
         id="path5623"
         style="display:inline;fill:#53c659;fill-opacity:0.680496;fill-rule:evenodd;stroke:#000000;stroke-width:0.189296;stroke-linejoin:bevel;stroke-miterlimit:3.9;stroke-dasharray:none;stroke-opacity:1;paint-order:fill markers stroke"
         d="m 182.33128,101.79036 a 3,3 0 0 0 -0.0357,0.0222 3,3 0 0 0 -0.4749,0.47543 3,3 0 0 0 -0.35709,0.56844 3,3 0 0 0 -0.2222,0.63407 3,3 0 0 0 -0.0749,0.66766 3,3 0 0 0 0.0749,0.66766 3,3 0 0 0 0.2222,0.63407 3,3 0 0 0 0.35709,0.56895 3,3 0 0 0 0.4749,0.47491 3,3 0 0 0 0.0357,0.0222 z" />
      <path
         id="path5626"
         style="display:inline;fill:#53c659;fill-opacity:0.680496;fill-rule:evenodd;stroke:#000000;stroke-width:0.189296;stroke-linejoin:bevel;stroke-miterlimit:3.9;stroke-dasharray:none;stroke-opacity:1;paint-order:fill markers stroke"
         d="m 182.33128,93.066865 a 3,3 0 0 0 -0.15399,0.01757 3,3 0 0 0 -0.63407,0.221692 3,3 0 0 0 -0.56896,0.357601 3,3 0 0 0 -0.47491,0.474906 3,3 0 0 0 -0.3576,0.568958 3,3 0 0 0 -0.22169,0.63407 3,3 0 0 0 -0.0755,0.667659 3,3 0 0 0 0.0755,0.667143 3,3 0 0 0 0.22169,0.634587 3,3 0 0 0 0.3576,0.56844 3,3 0 0 0 0.47491,0.474907 3,3 0 0 0 0.56896,0.357601 3,3 0 0 0 0.63407,0.221692 3,3 0 0 0 0.15399,0.01757 z" />
      <path
         id="path5629"
         style="display:inline;fill:#53c659;fill-opacity:0.680496;fill-rule:evenodd;stroke:#000000;stroke-width:0.189296;stroke-linejoin:bevel;stroke-miterlimit:3.9;stroke-dasharray:none;stroke-opacity:1;paint-order:fill markers stroke"
         d="m 182.33128,80.028901 a 3,3 0 0 0 -0.60978,0.213424 3,3 0 0 0 -0.56844,0.357601 3,3 0 0 0 -0.47542,0.474906 3,3 0 0 0 -0.35708,0.568958 3,3 0 0 0 -0.22221,0.63407 3,3 0 0 0 -0.0749,0.667659 3,3 0 0 0 0.0749,0.667143 3,3 0 0 0 0.22221,0.63407 3,3 0 0 0 0.35708,0.568957 3,3 0 0 0 0.47542,0.474907 3,3 0 0 0 0.56844,0.357601 3,3 0 0 0 0.60978,0.213423 z" />
      <path
         id="path5647"
         style="display:inline;fill:#53c659;fill-opacity:0.680496;fill-rule:evenodd;stroke:#000000;stroke-width:0.189296;stroke-linejoin:bevel;stroke-miterlimit:3.9;stroke-dasharray:none;stroke-opacity:1;paint-order:fill markers stroke"
         d="m 129.43684,73.701122 a 3,3 0 0 0 0.34313,0.546737 3,3 0 0 0 0.47542,0.474906 3,3 0 0 0 0.56844,0.357601 3,3 0 0 0 0.63407,0.221692 3,3 0 0 0 0.66766,0.07545 3,3 0 0 0 0.66766,-0.07545 3,3 0 0 0 0.63407,-0.221692 3,3 0 0 0 0.56896,-0.357601 3,3 0 0 0 0.47491,-0.474906 3,3 0 0 0 0.34364,-0.546737 z" />
      <path
         id="path5644"
         style="display:inline;fill:#53c659;fill-opacity:0.680496;fill-rule:evenodd;stroke:#000000;stroke-width:0.189296;stroke-linejoin:bevel;stroke-miterlimit:3.9;stroke-dasharray:none;stroke-opacity:1;paint-order:fill markers stroke"
         d="m 136.68653,73.701122 a 3,3 0 0 0 0.0475,0.425297 3,3 0 0 0 0.2222,0.63407 3,3 0 0 0 0.35709,0.568958 3,3 0 0 0 0.47542,0.474906 3,3 0 0 0 0.56844,0.357601 3,3 0 0 0 0.63407,0.221692 3,3 0 0 0 0.66766,0.07545 3,3 0 0 0 0.66766,-0.07545 3,3 0 0 0 0.63407,-0.221692 3,3 0 0 0 0.56896,-0.357601 3,3 0 0 0 0.4749,-0.474906 3,3 0 0 0 0.35761,-0.568958 3,3 0 0 0 0.22169,-0.63407 3,3 0 0 0 0.0475,-0.425297 z" />
      <path
         id="path5641"
         style="display:inline;fill:#53c659;fill-opacity:0.680496;fill-rule:evenodd;stroke:#000000;stroke-width:0.189296;stroke-linejoin:bevel;stroke-miterlimit:3.9;stroke-dasharray:none;stroke-opacity:1;paint-order:fill markers stroke"
         d="m 147.30965,73.701122 a 3,3 0 0 0 0.0191,0.167949 3,3 0 0 0 0.22169,0.634069 3,3 0 0 0 0.3576,0.568958 3,3 0 0 0 0.47491,0.474906 3,3 0 0 0 0.56896,0.357601 3,3 0 0 0 0.63407,0.221692 3,3 0 0 0 0.66766,0.07545 3,3 0 0 0 0.66766,-0.07545 3,3 0 0 0 0.63406,-0.221692 3,3 0 0 0 0.56845,-0.357601 3,3 0 0 0 0.4749,-0.474906 3,3 0 0 0 0.3576,-0.568958 3,3 0 0 0 0.22169,-0.634069 3,3 0 0 0 0.0191,-0.167949 z" />
      <path
         id="path5638"
         style="display:inline;fill:#53c659;fill-opacity:0.680496;fill-rule:evenodd;stroke:#000000;stroke-width:0.189296;stroke-linejoin:bevel;stroke-miterlimit:3.9;stroke-dasharray:none;stroke-opacity:1;paint-order:fill markers stroke"
         d="m 158.587,73.701122 a 3,3 0 0 0 0.0103,0.09043 3,3 0 0 0 0.22169,0.63407 3,3 0 0 0 0.3576,0.568957 3,3 0 0 0 0.47491,0.474907 3,3 0 0 0 0.56895,0.357601 3,3 0 0 0 0.63407,0.221692 3,3 0 0 0 0.66766,0.07493 3,3 0 0 0 0.66766,-0.07493 3,3 0 0 0 0.63407,-0.221692 3,3 0 0 0 0.56844,-0.357601 3,3 0 0 0 0.47543,-0.474907 3,3 0 0 0 0.35708,-0.568957 3,3 0 0 0 0.22169,-0.63407 3,3 0 0 0 0.0103,-0.09043 z" />
      <path
         id="path5635"
         style="display:inline;fill:#53c659;fill-opacity:0.680496;fill-rule:evenodd;stroke:#000000;stroke-width:0.189296;stroke-linejoin:bevel;stroke-miterlimit:3.9;stroke-dasharray:none;stroke-opacity:1;paint-order:fill markers stroke"
         d="m 168.05619,73.701122 a 3,3 0 0 0 0.0341,0.304374 3,3 0 0 0 0.22221,0.63407 3,3 0 0 0 0.35708,0.568958 3,3 0 0 0 0.47542,0.474906 3,3 0 0 0 0.56844,0.357601 3,3 0 0 0 0.63407,0.221692 3,3 0 0 0 0.66766,0.07545 3,3 0 0 0 0.66766,-0.07545 3,3 0 0 0 0.63407,-0.221692 3,3 0 0 0 0.56896,-0.357601 3,3 0 0 0 0.47491,-0.474906 3,3 0 0 0 0.3576,-0.568958 3,3 0 0 0 0.22169,-0.63407 3,3 0 0 0 0.0341,-0.304374 z" />
      <circle
         style="display:inline;fill:#53c659;fill-opacity:0.680496;fill-rule:evenodd;stroke:#000000;stroke-width:0.189296;stroke-linejoin:bevel;stroke-miterlimit:3.9;stroke-dasharray:none;stroke-opacity:1;paint-order:fill markers stroke"
         id="path3463"
         cx="159.90465"
         cy="95.211609"
         r="3" />
      <circle
         style="display:inline;fill:#53c659;fill-opacity:0.680496;fill-rule:evenodd;stroke:#000000;stroke-width:0.189296;stroke-linejoin:bevel;stroke-miterlimit:3.9;stroke-dasharray:none;stroke-opacity:1;paint-order:fill markers stroke"
         id="path3463-3"
         cx="133.47668"
         cy="99.930893"
         r="3" />
      <circle
         style="display:inline;fill:#53c659;fill-opacity:0.680496;fill-rule:evenodd;stroke:#000000;stroke-width:0.189296;stroke-linejoin:bevel;stroke-miterlimit:3.9;stroke-dasharray:none;stroke-opacity:1;paint-order:fill markers stroke"
         id="path3463-6"
         cx="141.76683"
         cy="91.13903"
         r="3" />
      <circle
         style="display:inline;fill:#53c659;fill-opacity:0.680496;fill-rule:evenodd;stroke:#000000;stroke-width:0.189296;stroke-linejoin:bevel;stroke-miterlimit:3.9;stroke-dasharray:none;stroke-opacity:1;paint-order:fill markers stroke"
         id="path3463-7"
         cx="148.40964"
         cy="106.13036"
         r="3" />
      <circle
         style="display:inline;fill:#53c659;fill-opacity:0.680496;fill-rule:evenodd;stroke:#000000;stroke-width:0.189296;stroke-linejoin:bevel;stroke-miterlimit:3.9;stroke-dasharray:none;stroke-opacity:1;paint-order:fill markers stroke"
         id="path3463-5"
         cx="155.96152"
         cy="83.838074"
         r="3" />
      <circle
         style="display:inline;fill:#53c659;fill-opacity:0.680496;fill-rule:evenodd;stroke:#000000;stroke-width:0.189296;stroke-linejoin:bevel;stroke-miterlimit:3.9;stroke-dasharray:none;stroke-opacity:1;paint-order:fill markers stroke"
         id="path3463-35"
         cx="170.23927"
         cy="88.008636"
         r="3" />
      <circle
         style="display:inline;fill:#53c659;fill-opacity:0.680496;fill-rule:evenodd;stroke:#000000;stroke-width:0.189296;stroke-linejoin:bevel;stroke-miterlimit:3.9;stroke-dasharray:none;stroke-opacity:1;paint-order:fill markers stroke"
         id="path3463-62"
         cx="167.34212"
         cy="118.54594"
         r="3" />
      <circle
         style="display:inline;fill:#53c659;fill-opacity:0.680496;fill-rule:evenodd;stroke:#000000;stroke-width:0.189296;stroke-linejoin:bevel;stroke-miterlimit:3.9;stroke-dasharray:none;stroke-opacity:1;paint-order:fill markers stroke"
         id="path3463-9"
         cx="168.65073"
         cy="105.39565"
         r="3" />
      <circle
         style="display:inline;fill:#53c659;fill-opacity:0.680496;fill-rule:evenodd;stroke:#000000;stroke-width:0.189296;stroke-linejoin:bevel;stroke-miterlimit:3.9;stroke-dasharray:none;stroke-opacity:1;paint-order:fill markers stroke"
         id="path3463-1"
         cx="146.41331"
         cy="116.83714"
         r="3" />
      <circle
         style="display:inline;fill:#53c659;fill-opacity:0.680496;fill-rule:evenodd;stroke:#000000;stroke-width:0.189296;stroke-linejoin:bevel;stroke-miterlimit:3.9;stroke-dasharray:none;stroke-opacity:1;paint-order:fill markers stroke"
         id="path3463-2"
         cx="155.45897"
         cy="126.47824"
         r="3" />
      <circle
         style="display:inline;fill:#53c659;fill-opacity:0.680496;fill-rule:evenodd;stroke:#000000;stroke-width:0.189296;stroke-linejoin:bevel;stroke-miterlimit:3.9;stroke-dasharray:none;stroke-opacity:1;paint-order:fill markers stroke"
         id="path3463-70"
         cx="134.80975"
         cy="123.17841"
         r="3" />
      <circle
         style="display:inline;fill:#53c659;fill-opacity:0.680496;fill-rule:evenodd;stroke:#000000;stroke-width:0.189296;stroke-linejoin:bevel;stroke-miterlimit:3.9;stroke-dasharray:none;stroke-opacity:1;paint-order:fill markers stroke"
         id="path3463-93"
         cx="133.93906"
         cy="112.69414"
         r="3" />
      <circle
         style="display:inline;fill:#53c659;fill-opacity:0.680496;fill-rule:evenodd;stroke:#000000;stroke-width:0.189296;stroke-linejoin:bevel;stroke-miterlimit:3.9;stroke-dasharray:none;stroke-opacity:1;paint-order:fill markers stroke"
         id="path3463-60"
         cx="157.25998"
         cy="111.36366"
         r="3" />
      <circle
         style="display:inline;fill:#53c659;fill-opacity:0.680496;fill-rule:evenodd;stroke:#000000;stroke-width:0.189296;stroke-linejoin:bevel;stroke-miterlimit:3.9;stroke-dasharray:none;stroke-opacity:1;paint-order:fill markers stroke"
         id="path3463-626"
         cx="133.69965"
         cy="80.956116"
         r="3" />
      <circle
         style="display:inline;fill:#53c659;fill-opacity:0.680496;fill-rule:evenodd;stroke:#000000;stroke-width:0.189296;stroke-linejoin:bevel;stroke-miterlimit:3.9;stroke-dasharray:none;stroke-opacity:1;paint-order:fill markers stroke"
         id="path3463-18"
         cx="145.62465"
         cy="78.33741"
         r="3" />
      <circle
         style="display:inline;fill:#53c659;fill-opacity:0.680496;fill-rule:evenodd;stroke:#000000;stroke-width:0.189296;stroke-linejoin:bevel;stroke-miterlimit:3.9;stroke-dasharray:none;stroke-opacity:1;paint-order:fill markers stroke"
         id="path3463-79"
         cx="164.77586"
         cy="79.103363"
         r="3" />
      <circle
         style="display:inline;fill:#53c659;fill-opacity:0.680496;fill-rule:evenodd;stroke:#000000;stroke-width:0.189296;stroke-linejoin:bevel;stroke-miterlimit:3.9;stroke-dasharray:none;stroke-opacity:1;paint-order:fill markers stroke"
         id="path3463-20"
         cx="176.32878"
         cy="97.445076"
         r="3" />
      <circle
         style="display:inline;fill:#53c659;fill-opacity:0.680496;fill-rule:evenodd;stroke:#000000;stroke-width:0.189296;stroke-linejoin:bevel;stroke-miterlimit:3.9;stroke-dasharray:none;stroke-opacity:1;paint-order:fill markers stroke"
         id="path3463-20-2"
         cx="177.55643"
         cy="113.99432"
         r="3" />
      <circle
         style="display:inline;fill:#53c659;fill-opacity:0.680496;fill-rule:evenodd;stroke:#000000;stroke-width:0.189296;stroke-linejoin:bevel;stroke-miterlimit:3.9;stroke-dasharray:none;stroke-opacity:1;paint-order:fill markers stroke"
         id="path3463-20-3"
         cx="174.78136"
         cy="127.5554"
         r="3" />
      <circle
         style="display:inline;fill:#53c659;fill-opacity:0.680496;fill-rule:evenodd;stroke:#000000;stroke-width:0.189296;stroke-linejoin:bevel;stroke-miterlimit:3.9;stroke-dasharray:none;stroke-opacity:1;paint-order:fill markers stroke"
         id="path3463-20-7"
         cx="144.19511"
         cy="128.06662"
         r="3" />
      <circle
         style="display:inline;fill:#53c659;fill-opacity:0.680496;fill-rule:evenodd;stroke:#000000;stroke-width:0.189296;stroke-linejoin:bevel;stroke-miterlimit:3.9;stroke-dasharray:none;stroke-opacity:1;paint-order:fill markers stroke"
         id="path3463-20-5"
         cx="129.03751"
         cy="90.021187"
         r="3" />
      <circle
         style="display:inline;fill:#53c659;fill-opacity:0.680496;fill-rule:evenodd;stroke:#000000;stroke-width:0.189296;stroke-linejoin:bevel;stroke-miterlimit:3.9;stroke-dasharray:none;stroke-opacity:1;paint-order:fill markers stroke"
         id="path3463-20-9"
         cx="150.62292"
         cy="94.474495"
         r="3" />
    </g>
    <text
       xml:space="preserve"
       style="font-weight:bold;font-size:4.23333px;line-height:2;font-family:'Times New Roman';-inkscape-font-specification:'Times New Roman, Bold';opacity:0.97;fill:#000000;stroke:none;stroke-width:0.4"
       x="47.221355"
       y="77.175781"
       id="text2660"><tspan
         sodipodi:role="line"
         style="fill:#000000;stroke:none;stroke-width:0.4"
         x="47.221355"
         y="77.175781"
         id="tspan2654">- Microstructure </tspan><tspan
         sodipodi:role="line"
         style="fill:#000000;stroke:none;stroke-width:0.4"
         x="47.221355"
         y="85.642441"
         id="tspan2656">- Material properties </tspan><tspan
         sodipodi:role="line"
         style="fill:#000000;stroke:none;stroke-width:0.4"
         x="47.221355"
         y="94.1091"
         id="tspan2658">- Loading conditions</tspan></text>
    <path
       id="path1274"
       style="fill:#999999;fill-opacity:1;stroke:none;stroke-width:0.086;stroke-dasharray:none"
       inkscape:label="rect351"
       d="m 130.34152,69.30935 v 1.842701 h -2.4033 -4.4e-4 -7.19744 v 1.496776 h 12.85772 l 0.0641,-0.06589 z" />
    <path
       id="path3561"
       style="fill:#999999;fill-opacity:1;stroke:none;stroke-width:0.086;stroke-dasharray:none"
       inkscape:label="rect351"
       d="m 122.90177,118.38319 v -1.8427 h 2.4033 4.4e-4 7.19744 v -1.49678 h -12.85772 l -0.0641,0.0659 z" />
    <text
       xml:space="preserve"
       style="font-weight:bold;font-size:4.23333px;font-family:'Times New Roman';-inkscape-font-specification:'Times New Roman, Bold';opacity:0.97;fill:#000000;stroke:none;stroke-width:0.4"
       x="123.38245"
       y="69.084808"
       id="text3704"><tspan
         sodipodi:role="line"
         id="tspan3702"
         style="fill:#000000;stroke:none;stroke-width:0.4"
         x="123.38245"
         y="69.084808">Json</tspan></text>
    <text
       xml:space="preserve"
       style="font-weight:bold;font-size:4.23333px;font-family:'Times New Roman';-inkscape-font-specification:'Times New Roman, Bold';opacity:0.97;fill:#000000;stroke:none;stroke-width:0.4"
       x="122.39002"
       y="122.83945"
       id="text3708"><tspan
         sodipodi:role="line"
         id="tspan3706"
         style="fill:#000000;stroke:none;stroke-width:0.4"
         x="122.39002"
         y="122.83945">Pickle</tspan></text>
    <text
       xml:space="preserve"
       style="font-weight:bold;font-size:4.23333px;font-family:'Times New Roman';-inkscape-font-specification:'Times New Roman, Bold';text-align:center;text-anchor:middle;opacity:0.97;fill:#800000;fill-opacity:1;stroke:#800000;stroke-width:0.0859999;stroke-dasharray:none"
       x="41.896873"
       y="29.802664"
       id="text3768"><tspan
         sodipodi:role="line"
         id="tspan3766"
         style="fill:#1c241f;stroke:#1c241f;stroke-width:0.086"
         x="41.896873"
         y="29.802664">DoE</tspan></text>
    <text
       xml:space="preserve"
       style="font-weight:bold;font-size:4.23333px;font-family:'Times New Roman';-inkscape-font-specification:'Times New Roman, Bold';text-align:center;text-anchor:middle;opacity:0.97;fill:none;fill-opacity:1;stroke:#666666;stroke-width:0.0859999;stroke-dasharray:none"
       x="41.761482"
       y="137.87273"
       id="text3768-6"><tspan
         sodipodi:role="line"
         id="tspan3766-1"
         style="fill:#1c241f;stroke:#1c241f;stroke-width:0.086"
         x="42.232254"
         y="137.87273">ML </tspan></text>
    <path
       style="display:inline;fill:none;fill-opacity:0.359189;stroke:#008080;stroke-width:2.898;stroke-linecap:square;stroke-linejoin:bevel;stroke-miterlimit:3;stroke-dasharray:none;stroke-opacity:0.511549;marker-end:url(#Arrow2);paint-order:fill markers stroke"
       d="m 57.850189,28.378606 c 1.673659,0.07238 3.347364,0.144767 4.156316,3.99738 0.808951,3.852613 0.753037,11.482296 0.697105,19.114325"
       id="path32415"
       sodipodi:nodetypes="ccc"
       inkscape:original-d="m 57.850189,28.378606 c 1.673644,0.07272 3.34735,0.145096 5.021205,0.217157 -0.05584,7.632837 -0.111755,15.26252 -0.167784,22.894548"
       inkscape:path-effect="#path-effect32417" />
    <path
       style="display:inline;fill:none;fill-opacity:0.359189;stroke:#008080;stroke-width:2.898;stroke-linecap:square;stroke-linejoin:bevel;stroke-miterlimit:3;stroke-dasharray:none;stroke-opacity:0.511549;marker-end:url(#Arrow2);paint-order:fill markers stroke"
       d="m 84.117719,120.94413 c -0.06893,5.72251 -0.137869,11.44525 -3.806965,14.21124 -3.669095,2.76598 -10.935353,2.57479 -18.20385,2.38355"
       id="path4815"
       sodipodi:nodetypes="ccc"
       inkscape:original-d="m 84.117719,120.94413 c -0.06924,5.72251 -0.138175,11.44525 -0.206811,17.16848 -7.269258,-0.19093 -14.535516,-0.38211 -21.804004,-0.57369"
       inkscape:path-effect="#path-effect4819" />
    <text
       xml:space="preserve"
       style="font-weight:bold;font-size:4.23333px;font-family:'Times New Roman';-inkscape-font-specification:'Times New Roman, Bold';opacity:0.97;fill:#d40000;stroke:none;stroke-width:0.4"
       x="133.23297"
       y="45.411976"
       id="text5356"><tspan
         sodipodi:role="line"
         id="tspan5354"
         style="fill:#d40000;stroke:none;stroke-width:0.4"
         x="133.23297"
         y="45.411976">Abaqus RVE Simulator</tspan></text>
    <g
       id="g5840"
       transform="translate(0,2.6458334)">
      <g
         id="g6121">
        <rect
           style="opacity:0.97;fill:#e9afaf;fill-opacity:0.25;stroke:none;stroke-width:0.0859997;stroke-dasharray:none"
           id="rect3712"
           width="46.206631"
           height="69.642258"
           x="135.86392"
           y="51.370346"
           rx="2.3742223"
           ry="2.8958499" />
        <rect
           style="opacity:0.97;fill:none;fill-opacity:0.122996;stroke:#ff6600;stroke-width:0.300001;stroke-dasharray:0.599999, 0.300001;stroke-dashoffset:0"
           id="rect1498-6"
           width="41.460052"
           height="51.95718"
           x="138.23721"
           y="65.452835"
           rx="0"
           ry="0" />
        <text
           xml:space="preserve"
           style="font-weight:bold;font-size:4.23333px;font-family:'Times New Roman';-inkscape-font-specification:'Times New Roman, Bold';opacity:0.97;fill:#000000;stroke:none;stroke-width:0.4"
           x="145.53035"
           y="70.330597"
           id="text1842"><tspan
             sodipodi:role="line"
             id="tspan1840"
             style="fill:#000000;stroke:none;stroke-width:0.4"
             x="145.53035"
             y="70.330597">Abaqus scripts</tspan></text>
        <g
           id="g5806"
           transform="translate(-1.3089142,-2.7769516)">
          <text
             xml:space="preserve"
             style="font-weight:bold;font-size:4.23333px;font-family:'Times New Roman';-inkscape-font-specification:'Times New Roman, Bold';opacity:0.97;fill:#000000;stroke:none;stroke-width:0.4"
             x="141.63171"
             y="81.786247"
             id="text2007"><tspan
               sodipodi:role="line"
               style="fill:#000000;stroke:none;stroke-width:0.4"
               x="141.63171"
               y="81.786247"
               id="tspan2015">- Modeling </tspan><tspan
               sodipodi:role="line"
               style="fill:#000000;stroke:none;stroke-width:0.4"
               x="141.63171"
               y="87.077911"
               id="tspan2031" /></text>
          <rect
             style="opacity:0.97;fill:none;fill-opacity:0.122996;stroke:#88aa00;stroke-width:0.4"
             id="rect2085"
             width="39.858246"
             height="8.1598063"
             x="140.34703"
             y="76.704857"
             rx="0"
             ry="0" />
        </g>
        <g
           id="g3694"
           transform="translate(-2.9560506,2.196632)">
          <path
             id="path3682"
             style="fill:#999999;fill-opacity:1;stroke:none;stroke-width:0.0860002;stroke-dasharray:none"
             inkscape:label="rect351"
             d="m 165.25321,85.20794 h -1.8427 v -1.050361 -1.92e-4 -3.145638 h -1.49678 v 5.61946 l 0.0659,0.02801 z" />
          <path
             id="path3684"
             style="fill:#999999;fill-opacity:1;stroke:none;stroke-width:0.0860002;stroke-dasharray:none"
             inkscape:label="rect351"
             d="m 158.59337,85.207959 h 1.8427 v -1.05037 -1.9e-4 -3.14564 h 1.49678 v 5.61946 l -0.0659,0.028 z" />
        </g>
        <g
           id="g3700"
           transform="translate(-2.9560506,18.305644)">
          <path
             id="path3696"
             style="fill:#999999;fill-opacity:1;stroke:none;stroke-width:0.0860002;stroke-dasharray:none"
             inkscape:label="rect351"
             d="m 165.25321,85.20794 h -1.8427 v -1.050361 -1.92e-4 -3.145638 h -1.49678 v 5.61946 l 0.0659,0.02801 z" />
          <path
             id="path3698"
             style="fill:#999999;fill-opacity:1;stroke:none;stroke-width:0.0860002;stroke-dasharray:none"
             inkscape:label="rect351"
             d="m 158.59337,85.207959 h 1.8427 v -1.05037 -1.9e-4 -3.14564 h 1.49678 v 5.61946 l -0.0659,0.028 z" />
        </g>
        <g
           id="g5670">
          <text
             xml:space="preserve"
             style="font-weight:bold;font-size:4.23333px;font-family:'Times New Roman';-inkscape-font-specification:'Times New Roman, Bold';text-align:center;text-anchor:middle;opacity:0.97;fill:#000000;fill-opacity:1;stroke:none;stroke-width:0.4;stroke-dasharray:none"
             x="159.04346"
             y="60.045441"
             id="text1785"><tspan
               sodipodi:role="line"
               id="tspan1783"
               style="fill:#000000;stroke:none;stroke-width:0.4"
               x="159.04346"
               y="60.045441">Abaqus solver</tspan></text>
          <rect
             style="opacity:0.97;fill:none;fill-opacity:0.122996;stroke:#ff2a2a;stroke-width:0.4"
             id="rect5576"
             width="36.055614"
             height="9.773859"
             x="140.99084"
             y="54.140488"
             rx="1.407937"
             ry="1.7289355" />
        </g>
        <g
           id="g5795"
           transform="translate(-1.1151276,-2.5210281)">
          <text
             xml:space="preserve"
             style="font-weight:bold;font-size:4.23333px;font-family:'Times New Roman';-inkscape-font-specification:'Times New Roman, Bold';text-align:center;text-anchor:middle;opacity:0.97;fill:#000000;fill-opacity:1;stroke:none;stroke-width:0.0859999;stroke-dasharray:none"
             x="155.51898"
             y="97.604485"
             id="text3673"><tspan
               sodipodi:role="line"
               id="tspan3671"
               style="fill:#000000;fill-opacity:1;stroke-width:0.086"
               x="155.51898"
               y="97.604485">- FEM analysis </tspan><tspan
               sodipodi:role="line"
               style="fill:#000000;fill-opacity:1;stroke-width:0.086"
               x="155.51898"
               y="102.89615"
               id="tspan3675" /></text>
          <rect
             style="opacity:0.97;fill:none;fill-opacity:0.122996;stroke:#88aa00;stroke-width:0.4"
             id="rect5677"
             width="39.858246"
             height="8.1598063"
             x="140.15324"
             y="92.512756"
             rx="0"
             ry="0" />
        </g>
        <g
           id="g5800"
           transform="translate(-1.2924042,-5.4218123)">
          <text
             xml:space="preserve"
             style="font-weight:bold;font-size:4.23333px;font-family:'Times New Roman';-inkscape-font-specification:'Times New Roman, Bold';text-align:center;text-anchor:middle;opacity:0.97;fill:#000000;fill-opacity:1;stroke:none;stroke-width:0.0859999;stroke-dasharray:none"
             x="159.90327"
             y="116.55875"
             id="text3679"><tspan
               sodipodi:role="line"
               id="tspan3677"
               style="fill:#000000;fill-opacity:1;stroke-width:0.086"
               x="159.90327"
               y="116.55875">-Rough post-process</tspan></text>
          <rect
             style="opacity:0.97;fill:none;fill-opacity:0.122996;stroke:#88aa00;stroke-width:0.4"
             id="rect5685"
             width="39.858246"
             height="8.1598063"
             x="140.33052"
             y="111.47736"
             rx="0"
             ry="0" />
        </g>
      </g>
    </g>
  </g>
</svg>
