<?xml version="1.0" encoding="UTF-8" standalone="no"?>
<!-- Created with Inkscape (http://www.inkscape.org/) -->

<svg
   width="160mm"
   height="83.132721mm"
   viewBox="0 0 160 83.132721"
   version="1.1"
   id="svg5"
   inkscape:version="1.2.2 (1:1.2.2+202212051550+b0a8486541)"
   sodipodi:docname="RVE.svg"
   inkscape:export-filename="RVE.png"
   inkscape:export-xdpi="300"
   inkscape:export-ydpi="300"
   xmlns:inkscape="http://www.inkscape.org/namespaces/inkscape"
   xmlns:sodipodi="http://sodipodi.sourceforge.net/DTD/sodipodi-0.dtd"
   xmlns="http://www.w3.org/2000/svg"
   xmlns:svg="http://www.w3.org/2000/svg">
  <sodipodi:namedview
     id="namedview7"
     pagecolor="#ffffff"
     bordercolor="#000000"
     borderopacity="0.25"
     inkscape:showpageshadow="2"
     inkscape:pageopacity="0.0"
     inkscape:pagecheckerboard="0"
     inkscape:deskcolor="#d1d1d1"
     inkscape:document-units="mm"
     showgrid="false"
     inkscape:zoom="1.4891502"
     inkscape:cx="351.54278"
     inkscape:cy="236.37643"
     inkscape:window-width="1920"
     inkscape:window-height="1043"
     inkscape:window-x="1440"
     inkscape:window-y="0"
     inkscape:window-maximized="1"
     inkscape:current-layer="layer4" />
  <defs
     id="defs2">
    <marker
       style="overflow:visible"
       id="marker6323"
       refX="0"
       refY="0"
       orient="auto-start-reverse"
       inkscape:stockid="TriangleStart"
       markerWidth="5.3244081"
       markerHeight="6.155385"
       viewBox="0 0 5.3244081 6.1553851"
       inkscape:isstock="true"
       inkscape:collect="always"
       preserveAspectRatio="xMidYMid">
      <path
         transform="scale(0.5)"
         style="fill:context-stroke;fill-rule:evenodd;stroke:context-stroke;stroke-width:1pt"
         d="M 5.77,0 -2.88,5 V -5 Z"
         id="path6321" />
    </marker>
    <marker
       style="overflow:visible"
       id="TriangleStart"
       refX="0"
       refY="0"
       orient="auto-start-reverse"
       inkscape:stockid="TriangleStart"
       markerWidth="5.3244081"
       markerHeight="6.155385"
       viewBox="0 0 5.3244081 6.1553851"
       inkscape:isstock="true"
       inkscape:collect="always"
       preserveAspectRatio="xMidYMid">
      <path
         transform="scale(0.5)"
         style="fill:context-stroke;fill-rule:evenodd;stroke:context-stroke;stroke-width:1pt"
         d="M 5.77,0 -2.88,5 V -5 Z"
         id="path135" />
    </marker>
  </defs>
  <g
     inkscape:groupmode="layer"
     id="layer4"
     inkscape:label="text"
     transform="translate(-35.383515,-11.5687)">
    <rect
       style="fill:none;fill-rule:evenodd;stroke:none;stroke-width:0.822247;stroke-linejoin:bevel;stroke-miterlimit:3.9;paint-order:fill markers stroke"
       id="rect376"
       width="160"
       height="83.132721"
       x="35.383514"
       y="11.568701"
       inkscape:export-filename="RVE_illustration.pdf"
       inkscape:export-xdpi="300"
       inkscape:export-ydpi="300" />
    <path
       id="path5632"
       style="display:inline;fill:#488212;fill-opacity:0.109366;fill-rule:evenodd;stroke:#000000;stroke-width:0.3;stroke-linejoin:bevel;stroke-miterlimit:3.9;stroke-dasharray:none;stroke-opacity:1;paint-order:fill markers stroke"
       d="m 59.951715,24.425868 h -6.540686 v 6.248715 a 3,3 0 0 1 0.127124,-0.005 3,3 0 0 1 0.07751,0.001 3,3 0 0 1 0.077,0.003 3,3 0 0 1 0.077,0.005 3,3 0 0 1 0.077,0.007 3,3 0 0 1 0.07648,0.009 3,3 0 0 1 0.07648,0.0109 3,3 0 0 1 0.07648,0.0129 3,3 0 0 1 0.07596,0.0145 3,3 0 0 1 0.07493,0.017 3,3 0 0 1 0.07493,0.0186 3,3 0 0 1 0.07493,0.0207 3,3 0 0 1 0.0739,0.0222 3,3 0 0 1 0.07286,0.0248 3,3 0 0 1 0.07286,0.0263 3,3 0 0 1 0.07183,0.0279 3,3 0 0 1 0.07131,0.03 3,3 0 0 1 0.07028,0.032 3,3 0 0 1 0.06976,0.0336 3,3 0 0 1 0.06821,0.0357 3,3 0 0 1 0.0677,0.0367 3,3 0 0 1 0.06718,0.0393 3,3 0 0 1 0.06563,0.0403 3,3 0 0 1 0.0646,0.0424 3,3 0 0 1 0.06356,0.0439 3,3 0 0 1 0.06201,0.0455 3,3 0 0 1 0.06149,0.0475 3,3 0 0 1 0.05994,0.0486 3,3 0 0 1 0.0584,0.0501 3,3 0 0 1 0.05736,0.0517 3,3 0 0 1 0.05633,0.0532 3,3 0 0 1 0.05478,0.0548 3,3 0 0 1 0.05323,0.0558 3,3 0 0 1 0.05168,0.0574 3,3 0 0 1 0.05013,0.0589 3,3 0 0 1 0.04858,0.0599 3,3 0 0 1 0.04703,0.061 3,3 0 0 1 0.04599,0.0625 3,3 0 0 1 0.04393,0.0636 3,3 0 0 1 0.04186,0.0646 3,3 0 0 1 0.04082,0.0656 3,3 0 0 1 0.03876,0.0667 3,3 0 0 1 0.03721,0.0677 3,3 0 0 1 0.03566,0.0687 3,3 0 0 1 0.03359,0.0698 3,3 0 0 1 0.03204,0.0703 3,3 0 0 1 0.02997,0.0713 3,3 0 0 1 0.02791,0.0718 3,3 0 0 1 0.02636,0.0729 3,3 0 0 1 0.02429,0.0729 3,3 0 0 1 0.02274,0.0739 3,3 0 0 1 0.02067,0.0744 3,3 0 0 1 0.0186,0.0749 3,3 0 0 1 0.01705,0.0755 3,3 0 0 1 0.01447,0.076 3,3 0 0 1 0.01292,0.076 3,3 0 0 1 0.01085,0.0765 3,3 0 0 1 0.0093,0.077 3,3 0 0 1 0.0067,0.077 3,3 0 0 1 0.0052,0.077 3,3 0 0 1 0.0026,0.077 3,3 0 0 1 0,5.2e-4 3,3 0 0 1 0,5.1e-4 3,3 0 0 1 0,5.2e-4 3,3 0 0 1 0,5.2e-4 3,3 0 0 1 0,5.1e-4 3,3 0 0 1 5.17e-4,0.007 3,3 0 0 1 0,5.2e-4 3,3 0 0 1 0,5.2e-4 3,3 0 0 1 0,5.1e-4 3,3 0 0 1 0,5.2e-4 3,3 0 0 1 0,5.2e-4 3,3 0 0 1 0,5.1e-4 3,3 0 0 1 0,5.2e-4 3,3 0 0 1 0,5.2e-4 3,3 0 0 1 0,5.1e-4 3,3 0 0 1 0,5.2e-4 3,3 0 0 1 0,5.2e-4 3,3 0 0 1 0,5.1e-4 3,3 0 0 1 0,5.2e-4 3,3 0 0 1 0,5.2e-4 3,3 0 0 1 0,5.1e-4 3,3 0 0 1 0,5.2e-4 3,3 0 0 1 0,5.2e-4 3,3 0 0 1 0,5.1e-4 3,3 0 0 1 0,5.2e-4 3,3 0 0 1 0,5.2e-4 3,3 0 0 1 0,5.1e-4 3,3 0 0 1 0,5.2e-4 3,3 0 0 1 0,5.2e-4 3,3 0 0 1 0,5.1e-4 3,3 0 0 1 0,5.2e-4 3,3 0 0 1 0,5.2e-4 3,3 0 0 1 0,5.1e-4 3,3 0 0 1 0,5.2e-4 3,3 0 0 1 0,5.2e-4 3,3 0 0 1 0,5.1e-4 3,3 0 0 1 0,5.2e-4 3,3 0 0 1 0,5.2e-4 3,3 0 0 1 0,5.2e-4 3,3 0 0 1 0,5.1e-4 3,3 0 0 1 0,5.2e-4 3,3 0 0 1 0,5.2e-4 3,3 0 0 1 0,5.1e-4 3,3 0 0 1 0,5.2e-4 3,3 0 0 1 0,5.2e-4 3,3 0 0 1 0,5.1e-4 3,3 0 0 1 0,5.2e-4 3,3 0 0 1 0,5.2e-4 3,3 0 0 1 0,5.1e-4 3,3 0 0 1 0,5.2e-4 3,3 0 0 1 0,5.2e-4 3,3 0 0 1 0,5.1e-4 3,3 0 0 1 0,5.2e-4 3,3 0 0 1 0,5.2e-4 3,3 0 0 1 0,5.1e-4 3,3 0 0 1 0,5.2e-4 3,3 0 0 1 5.17e-4,0.007 3,3 0 0 1 0,5.2e-4 3,3 0 0 1 0,5.1e-4 3,3 0 0 1 0,5.2e-4 3,3 0 0 1 0,5.2e-4 3,3 0 0 1 0,5.1e-4 3,3 0 0 1 0,5.2e-4 3,3 0 0 1 0,5.2e-4 3,3 0 0 1 0,5.1e-4 3,3 0 0 1 0,5.2e-4 3,3 0 0 1 0,5.2e-4 3,3 0 0 1 0,5.1e-4 3,3 0 0 1 0,5.2e-4 3,3 0 0 1 0,5.2e-4 3,3 0 0 1 0,5.1e-4 3,3 0 0 1 0,5.2e-4 3,3 0 0 1 0,5.2e-4 3,3 0 0 1 0,5.2e-4 3,3 0 0 1 0,5.1e-4 3,3 0 0 1 0,5.2e-4 3,3 0 0 1 0,5.2e-4 3,3 0 0 1 0,5.1e-4 3,3 0 0 1 0,5.2e-4 3,3 0 0 1 0,5.2e-4 3,3 0 0 1 0,5.1e-4 3,3 0 0 1 0,5.2e-4 3,3 0 0 1 0,5.2e-4 3,3 0 0 1 0,5.1e-4 3,3 0 0 1 0,5.2e-4 3,3 0 0 1 0,5.2e-4 3,3 0 0 1 0,5.1e-4 3,3 0 0 1 0,5.2e-4 3,3 0 0 1 0,5.2e-4 3,3 0 0 1 0,5.1e-4 3,3 0 0 1 0,5.2e-4 3,3 0 0 1 0,5.2e-4 3,3 0 0 1 0,5.1e-4 3,3 0 0 1 0,5.2e-4 3,3 0 0 1 0,5.2e-4 3,3 0 0 1 0,5.1e-4 3,3 0 0 1 0,5.2e-4 3,3 0 0 1 0,5.2e-4 3,3 0 0 1 0,5.1e-4 3,3 0 0 1 0,5.2e-4 3,3 0 0 1 0,5.2e-4 3,3 0 0 1 0,5.1e-4 3,3 0 0 1 0,5.2e-4 3,3 0 0 1 0,5.2e-4 3,3 0 0 1 0,5.1e-4 3,3 0 0 1 0,5.2e-4 3,3 0 0 1 0,5.2e-4 3,3 0 0 1 0,5.2e-4 3,3 0 0 1 0,5.1e-4 3,3 0 0 1 0,5.2e-4 3,3 0 0 1 0,5.2e-4 3,3 0 0 1 0,5.1e-4 3,3 0 0 1 0,5.2e-4 3,3 0 0 1 0,5.2e-4 3,3 0 0 1 0,5.1e-4 3,3 0 0 1 0,5.2e-4 3,3 0 0 1 0,5.2e-4 3,3 0 0 1 0,5.1e-4 3,3 0 0 1 0,5.2e-4 3,3 0 0 1 0,5.2e-4 3,3 0 0 1 0,5.1e-4 3,3 0 0 1 0,5.2e-4 3,3 0 0 1 0,5.2e-4 3,3 0 0 1 0,5.1e-4 3,3 0 0 1 0,5.2e-4 3,3 0 0 1 0,5.2e-4 3,3 0 0 1 -0.0083,0.22427 3,3 0 0 1 -0.02481,0.22272 3,3 0 0 1 -0.04186,0.22066 3,3 0 0 1 -0.05839,0.21652 3,3 0 0 1 -0.0739,0.21188 3,3 0 0 1 -0.08992,0.20567 3,3 0 0 1 -0.104386,0.19792 3,3 0 0 1 -0.119373,0.19017 3,3 0 0 1 -0.133325,0.18035 3,3 0 0 1 -0.146244,0.17002 3,3 0 0 1 -0.158647,0.15864 3,3 0 0 1 -0.170015,0.14676 3,3 0 0 1 -0.180868,0.13281 3,3 0 0 1 -0.189652,0.11938 3,3 0 0 1 -0.198438,0.1049 3,3 0 0 1 -0.205672,0.0899 3,3 0 0 1 -0.211873,0.0739 3,3 0 0 1 -0.216525,0.0584 3,3 0 0 1 -0.220658,0.0413 3,3 0 0 1 -0.222725,0.0253 3,3 0 0 1 -0.224276,0.008 3,3 0 0 1 -0.127124,-0.005 v 7.07088 a 3,3 0 0 1 0.183968,0.007 3,3 0 0 1 0.234094,0.0279 3,3 0 0 1 0.230994,0.046 3,3 0 0 1 0.226343,0.0641 3,3 0 0 1 0.221175,0.0811 3,3 0 0 1 0.21394,0.0987 3,3 0 0 1 0.205672,0.11524 3,3 0 0 1 0.195854,0.13074 3,3 0 0 1 0.185002,0.14625 3,3 0 0 1 0.172599,0.15968 3,3 0 0 1 0.160197,0.17311 3,3 0 0 1 0.145727,0.185 3,3 0 0 1 0.130742,0.19586 3,3 0 0 1 0.115238,0.20515 3,3 0 0 1 0.0987,0.21394 3,3 0 0 1 0.08165,0.22118 3,3 0 0 1 0.06356,0.22686 3,3 0 0 1 0.04599,0.23099 3,3 0 0 1 0.0279,0.23358 3,3 0 0 1 0.0093,0.23564 3,3 0 0 1 -0.07545,0.66766 3,3 0 0 1 -0.221691,0.63407 3,3 0 0 1 -0.357601,0.56896 3,3 0 0 1 -0.474907,0.47491 3,3 0 0 1 -0.568957,0.35708 3,3 0 0 1 -0.63407,0.22221 3,3 0 0 1 -0.615983,0.0692 v 2.44119 a 3,3 0 0 1 0.602547,-0.21084 3,3 0 0 1 0.66766,-0.0755 3,3 0 0 1 0.235127,0.009 3,3 0 0 1 0.234095,0.0279 3,3 0 0 1 0.230993,0.046 3,3 0 0 1 0.22686,0.0636 3,3 0 0 1 0.220658,0.0817 3,3 0 0 1 0.213941,0.0987 3,3 0 0 1 0.205672,0.11524 3,3 0 0 1 0.195853,0.13074 3,3 0 0 1 0.185002,0.14573 3,3 0 0 1 0.173116,0.1602 3,3 0 0 1 0.15968,0.1726 3,3 0 0 1 0.145728,0.185 3,3 0 0 1 0.131258,0.19585 3,3 0 0 1 0.114722,0.20568 3,3 0 0 1 0.0987,0.21394 3,3 0 0 1 0.08165,0.22117 3,3 0 0 1 0.06408,0.22634 3,3 0 0 1 0.04599,0.231 3,3 0 0 1 0.02739,0.23409 3,3 0 0 1 0.0093,0.23565 3,3 0 0 1 -0.07493,0.66714 3,3 0 0 1 -0.222209,0.63407 3,3 0 0 1 -0.357084,0.56896 3,3 0 0 1 -0.475423,0.4749 3,3 0 0 1 -0.568441,0.3576 3,3 0 0 1 -0.63407,0.2217 3,3 0 0 1 -0.667659,0.0754 3,3 0 0 1 -0.66766,-0.0754 3,3 0 0 1 -0.602547,-0.21084 v 7.98039 a 3,3 0 0 1 0.37052,-0.0419 3,3 0 0 1 0.235128,0.009 3,3 0 0 1 0.234094,0.0274 3,3 0 0 1 0.230994,0.046 3,3 0 0 1 0.226342,0.0641 3,3 0 0 1 0.221175,0.0816 3,3 0 0 1 0.213941,0.0987 3,3 0 0 1 0.205672,0.11472 3,3 0 0 1 0.195854,0.13126 3,3 0 0 1 0.185001,0.14573 3,3 0 0 1 0.173116,0.15968 3,3 0 0 1 0.159681,0.17311 3,3 0 0 1 0.145727,0.18501 3,3 0 0 1 0.130741,0.19585 3,3 0 0 1 0.115239,0.20567 3,3 0 0 1 0.0987,0.21394 3,3 0 0 1 0.08165,0.22066 3,3 0 0 1 0.06356,0.22686 3,3 0 0 1 0.04599,0.23099 3,3 0 0 1 0.02791,0.2341 3,3 0 0 1 0.0093,0.23513 3,3 0 0 1 -0.07545,0.66766 3,3 0 0 1 -0.221692,0.63407 3,3 0 0 1 -0.357601,0.56895 3,3 0 0 1 -0.474906,0.47491 3,3 0 0 1 -0.568958,0.3576 3,3 0 0 1 -0.634069,0.22169 3,3 0 0 1 -0.667143,0.0754 3,3 0 0 1 -0.37052,-0.0419 v 3.96255 a 3,3 0 0 1 0.397908,-0.045 3,3 0 0 1 0.235128,0.009 3,3 0 0 1 0.234094,0.0279 3,3 0 0 1 0.230994,0.046 3,3 0 0 1 0.22686,0.0636 3,3 0 0 1 0.220658,0.0816 3,3 0 0 1 0.21394,0.0987 3,3 0 0 1 0.205673,0.11524 3,3 0 0 1 0.195853,0.13074 3,3 0 0 1 0.185002,0.14573 3,3 0 0 1 0.173116,0.1602 3,3 0 0 1 0.15968,0.1726 3,3 0 0 1 0.145728,0.185 3,3 0 0 1 0.131258,0.19585 3,3 0 0 1 0.114721,0.20568 3,3 0 0 1 0.0987,0.21394 3,3 0 0 1 0.08165,0.22117 3,3 0 0 1 0.06408,0.22634 3,3 0 0 1 0.04599,0.231 3,3 0 0 1 0.02739,0.23409 3,3 0 0 1 0.0093,0.23565 3,3 0 0 1 -0.07545,0.66714 3,3 0 0 1 -0.221692,0.63407 3,3 0 0 1 -0.357601,0.56896 3,3 0 0 1 -0.474907,0.4749 3,3 0 0 1 -0.568957,0.3576 3,3 0 0 1 -0.63407,0.2217 3,3 0 0 1 -0.667143,0.0754 3,3 0 0 1 -0.397908,-0.045 v 2.49494 h 6.337081 a 3,3 0 0 1 -0.03204,-0.0915 3,3 0 0 1 -0.07545,-0.66766 3,3 0 0 1 0.07545,-0.66766 3,3 0 0 1 0.221692,-0.63407 3,3 0 0 1 0.357601,-0.56844 3,3 0 0 1 0.474907,-0.47491 3,3 0 0 1 0.568957,-0.3576 3,3 0 0 1 0.63407,-0.22169 3,3 0 0 1 0.667659,-0.0754 3,3 0 0 1 0.235128,0.009 3,3 0 0 1 0.234094,0.0274 3,3 0 0 1 0.230994,0.046 3,3 0 0 1 0.22686,0.0641 3,3 0 0 1 0.220658,0.0816 3,3 0 0 1 0.21394,0.0987 3,3 0 0 1 0.205673,0.11472 3,3 0 0 1 0.195853,0.13126 3,3 0 0 1 0.185002,0.14573 3,3 0 0 1 0.173116,0.15968 3,3 0 0 1 0.15968,0.17311 3,3 0 0 1 0.145728,0.18501 3,3 0 0 1 0.131258,0.19585 3,3 0 0 1 0.114721,0.20567 3,3 0 0 1 0.0987,0.21394 3,3 0 0 1 0.08165,0.22066 3,3 0 0 1 0.06408,0.22686 3,3 0 0 1 0.04599,0.23099 3,3 0 0 1 0.02739,0.2341 3,3 0 0 1 0.0093,0.23513 3,3 0 0 1 -0.07493,0.66766 3,3 0 0 1 -0.03204,0.0915 h 1.6769 a 3,3 0 0 1 0.03876,-0.34468 3,3 0 0 1 0.221692,-0.63407 3,3 0 0 1 0.3576,-0.56896 3,3 0 0 1 0.474907,-0.4749 3,3 0 0 1 0.568957,-0.3576 3,3 0 0 1 0.63407,-0.2217 3,3 0 0 1 0.66766,-0.0754 3,3 0 0 1 0.235127,0.009 3,3 0 0 1 0.234095,0.0279 3,3 0 0 1 0.230993,0.046 3,3 0 0 1 0.22686,0.0636 3,3 0 0 1 0.220658,0.0816 3,3 0 0 1 0.213941,0.0987 3,3 0 0 1 0.205672,0.11524 3,3 0 0 1 0.195854,0.13074 3,3 0 0 1 0.185001,0.14573 3,3 0 0 1 0.173116,0.16019 3,3 0 0 1 0.15968,0.1726 3,3 0 0 1 0.145728,0.185 3,3 0 0 1 0.131258,0.19586 3,3 0 0 1 0.114722,0.20567 3,3 0 0 1 0.0987,0.21394 3,3 0 0 1 0.08165,0.22118 3,3 0 0 1 0.06408,0.22634 3,3 0 0 1 0.04599,0.23099 3,3 0 0 1 0.01705,0.14676 h 4.621423 a 3,3 0 0 1 0.0677,-0.60203 3,3 0 0 1 0.222209,-0.63407 3,3 0 0 1 0.357084,-0.56896 3,3 0 0 1 0.475423,-0.4749 3,3 0 0 1 0.568441,-0.3576 3,3 0 0 1 0.63407,-0.22169 3,3 0 0 1 0.667659,-0.0754 3,3 0 0 1 0.235645,0.009 3,3 0 0 1 0.233577,0.0274 3,3 0 0 1 0.230994,0.046 3,3 0 0 1 0.226859,0.0641 3,3 0 0 1 0.221175,0.0816 3,3 0 0 1 0.213941,0.0987 3,3 0 0 1 0.205672,0.11472 3,3 0 0 1 0.195854,0.13126 3,3 0 0 1 0.185001,0.14573 3,3 0 0 1 0.1726,0.15968 3,3 0 0 1 0.160197,0.17311 3,3 0 0 1 0.145727,0.185 3,3 0 0 1 0.130741,0.19586 3,3 0 0 1 0.115239,0.20567 3,3 0 0 1 0.0987,0.21394 3,3 0 0 1 0.08113,0.22066 3,3 0 0 1 0.06408,0.22686 3,3 0 0 1 0.04599,0.23099 3,3 0 0 1 0.02791,0.2341 3,3 0 0 1 0.0067,0.17001 h 5.272546 a 3,3 0 0 1 -0.0016,-0.0124 3,3 0 0 1 0.07493,-0.66766 3,3 0 0 1 0.222209,-0.63407 3,3 0 0 1 0.357084,-0.56844 3,3 0 0 1 0.475423,-0.47542 3,3 0 0 1 0.568441,-0.35709 3,3 0 0 1 0.634069,-0.22221 3,3 0 0 1 0.66766,-0.0749 3,3 0 0 1 0.235644,0.009 3,3 0 0 1 0.233578,0.0274 3,3 0 0 1 0.230994,0.046 3,3 0 0 1 0.226859,0.0641 3,3 0 0 1 0.221175,0.0816 3,3 0 0 1 0.213941,0.0987 3,3 0 0 1 0.205672,0.11472 3,3 0 0 1 0.195854,0.13125 3,3 0 0 1 0.185001,0.14573 3,3 0 0 1 0.172599,0.15968 3,3 0 0 1 0.160197,0.17312 3,3 0 0 1 0.145728,0.185 3,3 0 0 1 0.130741,0.19585 3,3 0 0 1 0.115239,0.20568 3,3 0 0 1 0.0987,0.21394 3,3 0 0 1 0.08113,0.22065 3,3 0 0 1 0.06408,0.22686 3,3 0 0 1 0.04599,0.231 3,3 0 0 1 0.02791,0.23409 3,3 0 0 1 0.0093,0.23513 3,3 0 0 1 -0.0016,0.0124 h 3.597197 a 3,3 0 0 1 0.0512,-0.45423 3,3 0 0 1 0.22169,-0.63407 3,3 0 0 1 0.3576,-0.56896 3,3 0 0 1 0.47491,-0.47491 3,3 0 0 1 0.568963,-0.3576 3,3 0 0 1 0.63407,-0.22169 3,3 0 0 1 0.66766,-0.0755 3,3 0 0 1 0.23512,0.009 3,3 0 0 1 0.2341,0.0279 3,3 0 0 1 0.23099,0.046 3,3 0 0 1 0.22686,0.0636 3,3 0 0 1 0.22066,0.0817 3,3 0 0 1 0.21394,0.0987 3,3 0 0 1 0.20567,0.11524 3,3 0 0 1 0.19586,0.13074 3,3 0 0 1 0.185,0.14573 3,3 0 0 1 0.17311,0.1602 3,3 0 0 1 0.15968,0.1726 3,3 0 0 1 0.14625,0.185 3,3 0 0 1 0.13074,0.19585 3,3 0 0 1 0.11472,0.20568 3,3 0 0 1 0.0987,0.21394 3,3 0 0 1 0.0816,0.22117 3,3 0 0 1 0.0641,0.22634 3,3 0 0 1 0.046,0.231 3,3 0 0 1 0.0274,0.23409 3,3 0 0 1 0.001,0.0222 h 8.24549 v -2.62826 a 3,3 0 0 1 -0.339,-0.11834 3,3 0 0 1 -0.56896,-0.3576 3,3 0 0 1 -0.4749,-0.47491 3,3 0 0 1 -0.35761,-0.56895 3,3 0 0 1 -0.22169,-0.63407 3,3 0 0 1 -0.0754,-0.66766 3,3 0 0 1 0.0754,-0.66715 3,3 0 0 1 0.22169,-0.63407 3,3 0 0 1 0.35761,-0.56895 3,3 0 0 1 0.4749,-0.47491 3,3 0 0 1 0.56896,-0.3576 3,3 0 0 1 0.339,-0.11834 v -4.22352 a 3,3 0 0 1 -0.36639,-0.12815 3,3 0 0 1 -0.56896,-0.3576 3,3 0 0 1 -0.4749,-0.47491 3,3 0 0 1 -0.3576,-0.56896 3,3 0 0 1 -0.2217,-0.63407 3,3 0 0 1 -0.0754,-0.66766 3,3 0 0 1 0.0754,-0.66766 3,3 0 0 1 0.2217,-0.63407 3,3 0 0 1 0.3576,-0.56844 3,3 0 0 1 0.4749,-0.47542 3,3 0 0 1 0.56896,-0.35708 3,3 0 0 1 0.36639,-0.12816 v -8.45375 a 3,3 0 0 1 -0.0357,-0.0222 3,3 0 0 1 -0.47491,-0.47491 3,3 0 0 1 -0.35708,-0.56895 3,3 0 0 1 -0.22221,-0.63407 3,3 0 0 1 -0.0749,-0.66766 3,3 0 0 1 0.0749,-0.66766 3,3 0 0 1 0.22221,-0.63407 3,3 0 0 1 0.35708,-0.56844 3,3 0 0 1 0.47491,-0.47543 3,3 0 0 1 0.0357,-0.0222 v -2.8391 a 3,3 0 0 1 -0.154,-0.0176 3,3 0 0 1 -0.63407,-0.22169 3,3 0 0 1 -0.56896,-0.3576 3,3 0 0 1 -0.4749,-0.47491 3,3 0 0 1 -0.3576,-0.56844 3,3 0 0 1 -0.2217,-0.63459 3,3 0 0 1 -0.0754,-0.66714 3,3 0 0 1 0.0754,-0.66766 3,3 0 0 1 0.2217,-0.63407 3,3 0 0 1 0.3576,-0.56896 3,3 0 0 1 0.4749,-0.4749 3,3 0 0 1 0.56896,-0.3576 3,3 0 0 1 0.63407,-0.2217 3,3 0 0 1 0.154,-0.0176 v -7.20524 a 3,3 0 0 1 -0.60978,-0.21342 3,3 0 0 1 -0.56845,-0.35761 3,3 0 0 1 -0.47542,-0.4749 3,3 0 0 1 -0.35708,-0.56896 3,3 0 0 1 -0.22221,-0.63407 3,3 0 0 1 -0.0749,-0.66714 3,3 0 0 1 0.0749,-0.66766 3,3 0 0 1 0.22221,-0.63407 3,3 0 0 1 0.35708,-0.56895 3,3 0 0 1 0.47542,-0.47491 3,3 0 0 1 0.56845,-0.3576 3,3 0 0 1 0.60978,-0.21342 V 24.4235 h -8.35712 a 3,3 0 0 1 -0.0341,0.304374 3,3 0 0 1 -0.22169,0.63407 3,3 0 0 1 -0.3576,0.568958 3,3 0 0 1 -0.47491,0.474906 3,3 0 0 1 -0.56896,0.357601 3,3 0 0 1 -0.63407,0.221692 3,3 0 0 1 -0.66766,0.07545 3,3 0 0 1 -0.66766,-0.07545 3,3 0 0 1 -0.63407,-0.221692 3,3 0 0 1 -0.568443,-0.357601 3,3 0 0 1 -0.47542,-0.474906 3,3 0 0 1 -0.35709,-0.568958 3,3 0 0 1 -0.22221,-0.63407 3,3 0 0 1 -0.0341,-0.304374 h -3.599258 a 3,3 0 0 1 -0.01034,0.09043 3,3 0 0 1 -0.221692,0.63407 3,3 0 0 1 -0.357084,0.568957 3,3 0 0 1 -0.475423,0.474907 3,3 0 0 1 -0.568441,0.357601 3,3 0 0 1 -0.63407,0.221692 3,3 0 0 1 -0.667659,0.07493 3,3 0 0 1 -0.66766,-0.07493 A 3,3 0 0 1 90.735221,26.549465 3,3 0 0 1 90.166263,26.191864 3,3 0 0 1 89.691357,25.716957 3,3 0 0 1 89.333756,25.148 3,3 0 0 1 89.112064,24.51393 3,3 0 0 1 89.101734,24.4235 h -5.389852 a 3,3 0 0 1 -0.01912,0.167949 3,3 0 0 1 -0.221691,0.634069 3,3 0 0 1 -0.357601,0.568958 3,3 0 0 1 -0.474907,0.474906 3,3 0 0 1 -0.568441,0.357601 3,3 0 0 1 -0.634069,0.221692 3,3 0 0 1 -0.66766,0.07545 3,3 0 0 1 -0.667659,-0.07545 3,3 0 0 1 -0.63407,-0.221692 A 3,3 0 0 1 78.897706,26.269382 3,3 0 0 1 78.4228,25.794476 3,3 0 0 1 78.065199,25.225518 3,3 0 0 1 77.843507,24.591449 3,3 0 0 1 77.824387,24.4235 h -4.678268 a 3,3 0 0 1 -0.04754,0.425297 3,3 0 0 1 -0.221692,0.63407 3,3 0 0 1 -0.357601,0.568958 3,3 0 0 1 -0.474906,0.474906 3,3 0 0 1 -0.568958,0.357601 3,3 0 0 1 -0.63407,0.221692 3,3 0 0 1 -0.667659,0.07545 3,3 0 0 1 -0.66766,-0.07545 3,3 0 0 1 -0.634069,-0.221692 3,3 0 0 1 -0.568441,-0.357601 3,3 0 0 1 -0.475423,-0.474906 3,3 0 0 1 -0.357084,-0.568958 3,3 0 0 1 -0.222209,-0.63407 3,3 0 0 1 -0.04754,-0.425297 h -1.871721 a 3,3 0 0 1 -0.343648,0.546737 3,3 0 0 1 -0.474907,0.474906 3,3 0 0 1 -0.568957,0.357601 3,3 0 0 1 -0.63407,0.221692 3,3 0 0 1 -0.667659,0.07545 3,3 0 0 1 -0.66766,-0.07545 3,3 0 0 1 -0.63407,-0.221692 3,3 0 0 1 -0.56844,-0.357601 A 3,3 0 0 1 60.294711,24.970237 3,3 0 0 1 59.95158,24.4235 Z" />
    <path
       style="display:inline;fill:none;fill-opacity:0.680496;fill-rule:evenodd;stroke:#000000;stroke-width:0.3;stroke-linejoin:bevel;stroke-miterlimit:3.9;stroke-dasharray:none;stroke-opacity:1;marker-start:url(#TriangleStart);marker-end:url(#marker6323);paint-order:fill markers stroke"
       d="m 46.432611,74.922002 v 15 h 15"
       id="path5997"
       sodipodi:nodetypes="ccc" />
    <text
       xml:space="preserve"
       style="font-style:italic;font-size:2.82223px;font-family:'Times New Roman';-inkscape-font-specification:'Times New Roman, Italic';text-align:center;text-anchor:middle;display:inline;fill:none;fill-opacity:0.680496;fill-rule:evenodd;stroke:#000000;stroke-width:0.2;stroke-linejoin:bevel;stroke-miterlimit:3.9;stroke-dasharray:none;stroke-opacity:1;paint-order:fill markers stroke"
       x="63.83707"
       y="88.481194"
       id="text6485"><tspan
         sodipodi:role="line"
         id="tspan6483"
         style="font-style:normal;font-variant:normal;font-weight:normal;font-stretch:normal;font-size:2.82223px;font-family:Ubuntu;-inkscape-font-specification:'Ubuntu, Normal';font-variant-ligatures:normal;font-variant-caps:normal;font-variant-numeric:normal;font-variant-east-asian:normal;fill:#000000;fill-opacity:0.998895;stroke-width:0.2"
         x="63.83707"
         y="88.481194">X</tspan></text>
    <text
       xml:space="preserve"
       style="font-style:italic;font-size:2.82223px;font-family:'Times New Roman';-inkscape-font-specification:'Times New Roman, Italic';text-align:center;text-anchor:middle;display:inline;fill:none;fill-opacity:0.680496;fill-rule:evenodd;stroke:#000000;stroke-width:0.2;stroke-linejoin:bevel;stroke-miterlimit:3.9;stroke-dasharray:none;stroke-opacity:1;paint-order:fill markers stroke"
       x="45.786118"
       y="92.868103"
       id="text6485-0"><tspan
         sodipodi:role="line"
         id="tspan6483-6"
         style="font-style:normal;font-variant:normal;font-weight:normal;font-stretch:normal;font-size:2.82223px;font-family:Ubuntu;-inkscape-font-specification:'Ubuntu, Normal';font-variant-ligatures:normal;font-variant-caps:normal;font-variant-numeric:normal;font-variant-east-asian:normal;fill:#000000;fill-opacity:0.998895;stroke-width:0.2"
         x="45.786118"
         y="92.868103">Z</tspan></text>
    <text
       xml:space="preserve"
       style="font-style:normal;font-variant:normal;font-weight:normal;font-stretch:normal;font-size:2.82223px;font-family:Ubuntu;-inkscape-font-specification:'Ubuntu, Normal';font-variant-ligatures:normal;font-variant-caps:normal;font-variant-numeric:normal;font-variant-east-asian:normal;text-align:center;text-anchor:middle;display:inline;fill:#000000;fill-opacity:0.998895;fill-rule:evenodd;stroke:#000000;stroke-width:0.2;stroke-linejoin:bevel;stroke-miterlimit:3.9;stroke-dasharray:none;stroke-opacity:1;paint-order:fill markers stroke"
       x="47.607304"
       y="74.756393"
       id="text6674"><tspan
         sodipodi:role="line"
         id="tspan6672"
         style="stroke-width:0.2"
         x="47.607304"
         y="74.756393">Y</tspan></text>
    <circle
       style="display:inline;fill:#790000;fill-opacity:0.998895;fill-rule:evenodd;stroke:#790000;stroke-width:0.2;stroke-linejoin:bevel;stroke-miterlimit:3.9;stroke-dasharray:none;stroke-opacity:1;paint-order:fill markers stroke"
       id="path6728"
       cx="46.464718"
       cy="89.888313"
       r="0.5" />
    <rect
       style="display:inline;fill:#53c659;fill-opacity:0.763435;fill-rule:evenodd;stroke:none;stroke-width:0.2;stroke-linejoin:bevel;stroke-miterlimit:3.9;stroke-dasharray:none;stroke-opacity:0.682353;paint-order:fill markers stroke"
       id="rect6782"
       width="5"
       height="5"
       x="60.4468"
       y="15.877747" />
    <rect
       style="display:inline;fill:#488212;fill-opacity:0.208495;fill-rule:evenodd;stroke:none;stroke-width:0.2;stroke-linejoin:bevel;stroke-miterlimit:3.9;stroke-dasharray:none;stroke-opacity:0.682353;paint-order:fill markers stroke"
       id="rect6782-9"
       width="5"
       height="5"
       x="84.513809"
       y="15.878001" />
    <text
       xml:space="preserve"
       style="font-style:normal;font-variant:normal;font-weight:normal;font-stretch:normal;font-size:2.82223px;font-family:Ubuntu;-inkscape-font-specification:'Ubuntu, Normal';font-variant-ligatures:normal;font-variant-caps:normal;font-variant-numeric:normal;font-variant-east-asian:normal;text-align:center;text-anchor:middle;display:inline;fill:#53c659;fill-opacity:0.763435;fill-rule:evenodd;stroke:none;stroke-width:0.2;stroke-linejoin:bevel;stroke-miterlimit:3.9;stroke-dasharray:none;stroke-opacity:0.682353;paint-order:fill markers stroke"
       x="72.5625"
       y="19.244198"
       id="text7021"><tspan
         sodipodi:role="line"
         id="tspan7019"
         style="font-style:normal;font-variant:normal;font-weight:bold;font-stretch:normal;font-size:2.82223px;font-family:'Times New Roman';-inkscape-font-specification:'Times New Roman, Bold';font-variant-ligatures:normal;font-variant-caps:normal;font-variant-numeric:normal;font-variant-east-asian:normal;fill:#000000;fill-opacity:1;stroke-width:0.2"
         x="72.5625"
         y="19.244198">Particles</tspan></text>
    <text
       xml:space="preserve"
       style="font-style:normal;font-variant:normal;font-weight:normal;font-stretch:normal;font-size:2.82223px;font-family:Ubuntu;-inkscape-font-specification:'Ubuntu, Normal';font-variant-ligatures:normal;font-variant-caps:normal;font-variant-numeric:normal;font-variant-east-asian:normal;text-align:center;text-anchor:middle;display:inline;fill:#53c659;fill-opacity:0.763435;fill-rule:evenodd;stroke:none;stroke-width:0.2;stroke-linejoin:bevel;stroke-miterlimit:3.9;stroke-dasharray:none;stroke-opacity:0.682353;paint-order:fill markers stroke"
       x="96.169098"
       y="19.244566"
       id="text7021-0"><tspan
         sodipodi:role="line"
         id="tspan7019-4"
         style="font-style:normal;font-variant:normal;font-weight:bold;font-stretch:normal;font-size:2.82223px;font-family:'Times New Roman';-inkscape-font-specification:'Times New Roman, Bold';font-variant-ligatures:normal;font-variant-caps:normal;font-variant-numeric:normal;font-variant-east-asian:normal;fill:#000000;fill-opacity:1;stroke-width:0.2"
         x="96.169098"
         y="19.244566">Matrix</tspan></text>
    <path
       id="rect234"
       style="display:inline;fill:#53c659;fill-opacity:0.680496;fill-rule:evenodd;stroke:#000000;stroke-width:0.3;stroke-linejoin:bevel;stroke-miterlimit:3.9;stroke-dasharray:none;stroke-opacity:1;paint-order:fill markers stroke"
       d="m 53.410977,36.662878 a 3,3 0 0 0 0.127124,0.0047 3,3 0 0 0 0.224276,-0.0083 3,3 0 0 0 0.222725,-0.02532 3,3 0 0 0 0.220658,-0.04134 3,3 0 0 0 0.216525,-0.05839 3,3 0 0 0 0.211873,-0.0739 3,3 0 0 0 0.205672,-0.08992 3,3 0 0 0 0.198438,-0.104903 3,3 0 0 0 0.189652,-0.119373 3,3 0 0 0 0.180868,-0.132808 3,3 0 0 0 0.170015,-0.146761 3,3 0 0 0 0.158647,-0.158647 3,3 0 0 0 0.146244,-0.170016 3,3 0 0 0 0.133325,-0.18035 3,3 0 0 0 0.119373,-0.19017 3,3 0 0 0 0.104386,-0.19792 3,3 0 0 0 0.08992,-0.205672 3,3 0 0 0 0.0739,-0.211874 3,3 0 0 0 0.05839,-0.216524 3,3 0 0 0 0.04186,-0.220658 3,3 0 0 0 0.02481,-0.222726 3,3 0 0 0 0.0083,-0.224276 3,3 0 0 0 -0.001,-0.07751 3,3 0 0 0 -0.0026,-0.077 3,3 0 0 0 -0.0052,-0.077 3,3 0 0 0 -0.0067,-0.077 3,3 0 0 0 -0.0093,-0.077 3,3 0 0 0 -0.01085,-0.07648 3,3 0 0 0 -0.01292,-0.07596 3,3 0 0 0 -0.01447,-0.07597 3,3 0 0 0 -0.01705,-0.07545 3,3 0 0 0 -0.0186,-0.07493 3,3 0 0 0 -0.02067,-0.07441 3,3 0 0 0 -0.02274,-0.0739 3,3 0 0 0 -0.02429,-0.07286 3,3 0 0 0 -0.02636,-0.07286 3,3 0 0 0 -0.02791,-0.07183 3,3 0 0 0 -0.02997,-0.07131 3,3 0 0 0 -0.03204,-0.07028 3,3 0 0 0 -0.03359,-0.06976 3,3 0 0 0 -0.03566,-0.06873 3,3 0 0 0 -0.03721,-0.0677 3,3 0 0 0 -0.03876,-0.06666 3,3 0 0 0 -0.04082,-0.06563 3,3 0 0 0 -0.04186,-0.0646 3,3 0 0 0 -0.04393,-0.06356 3,3 0 0 0 -0.04599,-0.06253 3,3 0 0 0 -0.04703,-0.06098 3,3 0 0 0 -0.04858,-0.05994 3,3 0 0 0 -0.05013,-0.05891 3,3 0 0 0 -0.05168,-0.05736 3,3 0 0 0 -0.05323,-0.05581 3,3 0 0 0 -0.05478,-0.05478 3,3 0 0 0 -0.05633,-0.05323 3,3 0 0 0 -0.05736,-0.05168 3,3 0 0 0 -0.0584,-0.05013 3,3 0 0 0 -0.05994,-0.04858 3,3 0 0 0 -0.0615,-0.04754 3,3 0 0 0 -0.06201,-0.04547 3,3 0 0 0 -0.06356,-0.04393 3,3 0 0 0 -0.0646,-0.04237 3,3 0 0 0 -0.06563,-0.04031 3,3 0 0 0 -0.06718,-0.03927 3,3 0 0 0 -0.0677,-0.03669 3,3 0 0 0 -0.06821,-0.03566 3,3 0 0 0 -0.06976,-0.03359 3,3 0 0 0 -0.07028,-0.03204 3,3 0 0 0 -0.07131,-0.02997 3,3 0 0 0 -0.07183,-0.02791 3,3 0 0 0 -0.07286,-0.02635 3,3 0 0 0 -0.07286,-0.02481 3,3 0 0 0 -0.0739,-0.02222 3,3 0 0 0 -0.07493,-0.02067 3,3 0 0 0 -0.07493,-0.0186 3,3 0 0 0 -0.07493,-0.01705 3,3 0 0 0 -0.07596,-0.01447 3,3 0 0 0 -0.07648,-0.01292 3,3 0 0 0 -0.07648,-0.01085 3,3 0 0 0 -0.07648,-0.0093 3,3 0 0 0 -0.077,-0.0067 3,3 0 0 0 -0.077,-0.0052 3,3 0 0 0 -0.077,-0.0031 3,3 0 0 0 -0.07752,-0.001 3,3 0 0 0 -0.127124,0.0052 z" />
    <path
       id="path5584"
       style="display:inline;fill:#53c659;fill-opacity:0.680496;fill-rule:evenodd;stroke:#000000;stroke-width:0.3;stroke-linejoin:bevel;stroke-miterlimit:3.9;stroke-dasharray:none;stroke-opacity:1;paint-order:fill markers stroke"
       d="m 53.410977,49.725647 a 3,3 0 0 0 0.615983,-0.06925 3,3 0 0 0 0.63407,-0.222209 3,3 0 0 0 0.568957,-0.357084 3,3 0 0 0 0.474907,-0.474907 3,3 0 0 0 0.357601,-0.568957 3,3 0 0 0 0.221691,-0.63407 3,3 0 0 0 0.07545,-0.66766 3,3 0 0 0 -0.0093,-0.235644 3,3 0 0 0 -0.02791,-0.233578 3,3 0 0 0 -0.04599,-0.230993 3,3 0 0 0 -0.06356,-0.22686 3,3 0 0 0 -0.08165,-0.221175 3,3 0 0 0 -0.0987,-0.21394 3,3 0 0 0 -0.115238,-0.205156 3,3 0 0 0 -0.130742,-0.195853 3,3 0 0 0 -0.145727,-0.185002 3,3 0 0 0 -0.160197,-0.173116 3,3 0 0 0 -0.172599,-0.15968 3,3 0 0 0 -0.185002,-0.146245 3,3 0 0 0 -0.195854,-0.130741 3,3 0 0 0 -0.205672,-0.115238 3,3 0 0 0 -0.21394,-0.0987 3,3 0 0 0 -0.221175,-0.08113 3,3 0 0 0 -0.226343,-0.06408 3,3 0 0 0 -0.230994,-0.04599 3,3 0 0 0 -0.234094,-0.02791 3,3 0 0 0 -0.183968,-0.0067 z" />
    <path
       id="path5593"
       style="display:inline;fill:#53c659;fill-opacity:0.680496;fill-rule:evenodd;stroke:#000000;stroke-width:0.3;stroke-linejoin:bevel;stroke-miterlimit:3.9;stroke-dasharray:none;stroke-opacity:1;paint-order:fill markers stroke"
       d="m 53.410977,57.594417 a 3,3 0 0 0 0.602547,0.21084 3,3 0 0 0 0.66766,0.07545 3,3 0 0 0 0.667659,-0.07545 3,3 0 0 0 0.63407,-0.221692 3,3 0 0 0 0.568441,-0.357601 3,3 0 0 0 0.475423,-0.474906 3,3 0 0 0 0.357084,-0.568958 3,3 0 0 0 0.222209,-0.634069 3,3 0 0 0 0.07493,-0.667143 3,3 0 0 0 -0.0093,-0.235645 3,3 0 0 0 -0.02739,-0.234094 3,3 0 0 0 -0.04599,-0.230994 3,3 0 0 0 -0.06408,-0.226342 3,3 0 0 0 -0.08165,-0.221175 3,3 0 0 0 -0.0987,-0.213941 3,3 0 0 0 -0.114722,-0.205672 3,3 0 0 0 -0.131258,-0.195854 3,3 0 0 0 -0.145728,-0.185001 3,3 0 0 0 -0.15968,-0.1726 3,3 0 0 0 -0.173116,-0.160197 3,3 0 0 0 -0.185002,-0.145727 3,3 0 0 0 -0.195853,-0.130742 3,3 0 0 0 -0.205672,-0.115238 3,3 0 0 0 -0.213941,-0.0987 3,3 0 0 0 -0.220658,-0.08165 3,3 0 0 0 -0.22686,-0.06356 3,3 0 0 0 -0.230993,-0.04599 3,3 0 0 0 -0.234095,-0.0279 3,3 0 0 0 -0.235127,-0.0093 3,3 0 0 0 -0.66766,0.07545 3,3 0 0 0 -0.602547,0.21084 z" />
    <path
       id="path5596"
       style="display:inline;fill:#53c659;fill-opacity:0.680496;fill-rule:evenodd;stroke:#000000;stroke-width:0.3;stroke-linejoin:bevel;stroke-miterlimit:3.9;stroke-dasharray:none;stroke-opacity:1;paint-order:fill markers stroke"
       d="m 53.410977,71.491243 a 3,3 0 0 0 0.37052,0.04186 3,3 0 0 0 0.667143,-0.07545 3,3 0 0 0 0.634069,-0.221692 3,3 0 0 0 0.568958,-0.357601 3,3 0 0 0 0.474906,-0.474906 3,3 0 0 0 0.357601,-0.568958 3,3 0 0 0 0.221692,-0.63407 3,3 0 0 0 0.07545,-0.667659 3,3 0 0 0 -0.0093,-0.235128 3,3 0 0 0 -0.02791,-0.234094 3,3 0 0 0 -0.04599,-0.230994 3,3 0 0 0 -0.06356,-0.226859 3,3 0 0 0 -0.08165,-0.220659 3,3 0 0 0 -0.0987,-0.21394 3,3 0 0 0 -0.115239,-0.205672 3,3 0 0 0 -0.130741,-0.195854 3,3 0 0 0 -0.145727,-0.185002 3,3 0 0 0 -0.159681,-0.173116 3,3 0 0 0 -0.173116,-0.15968 3,3 0 0 0 -0.185001,-0.145728 3,3 0 0 0 -0.195854,-0.131258 3,3 0 0 0 -0.205672,-0.114721 3,3 0 0 0 -0.213941,-0.0987 3,3 0 0 0 -0.221175,-0.08165 3,3 0 0 0 -0.226342,-0.06408 3,3 0 0 0 -0.230994,-0.04599 3,3 0 0 0 -0.234094,-0.02739 3,3 0 0 0 -0.235128,-0.0093 3,3 0 0 0 -0.37052,0.04186 z" />
    <path
       id="path5599"
       style="display:inline;fill:#53c659;fill-opacity:0.680496;fill-rule:evenodd;stroke:#000000;stroke-width:0.3;stroke-linejoin:bevel;stroke-miterlimit:3.9;stroke-dasharray:none;stroke-opacity:1;paint-order:fill markers stroke"
       d="m 53.410977,81.364026 a 3,3 0 0 0 0.397908,0.04496 3,3 0 0 0 0.667143,-0.07545 3,3 0 0 0 0.63407,-0.221692 3,3 0 0 0 0.568957,-0.357601 3,3 0 0 0 0.474907,-0.474906 3,3 0 0 0 0.357601,-0.568958 3,3 0 0 0 0.221692,-0.63407 3,3 0 0 0 0.07545,-0.667143 3,3 0 0 0 -0.0093,-0.235644 3,3 0 0 0 -0.02739,-0.234094 3,3 0 0 0 -0.04599,-0.230994 3,3 0 0 0 -0.06408,-0.226343 3,3 0 0 0 -0.08165,-0.221175 3,3 0 0 0 -0.0987,-0.21394 3,3 0 0 0 -0.114721,-0.205672 3,3 0 0 0 -0.131258,-0.195854 3,3 0 0 0 -0.145728,-0.185002 3,3 0 0 0 -0.15968,-0.172599 3,3 0 0 0 -0.173116,-0.160197 3,3 0 0 0 -0.185002,-0.145728 3,3 0 0 0 -0.195853,-0.130741 3,3 0 0 0 -0.205673,-0.115238 3,3 0 0 0 -0.21394,-0.0987 3,3 0 0 0 -0.220658,-0.08165 3,3 0 0 0 -0.22686,-0.06356 3,3 0 0 0 -0.230994,-0.04599 3,3 0 0 0 -0.234094,-0.0279 3,3 0 0 0 -0.235128,-0.0093 3,3 0 0 0 -0.397908,0.04496 z" />
    <path
       id="path5602"
       style="display:inline;fill:#53c659;fill-opacity:0.680496;fill-rule:evenodd;stroke:#000000;stroke-width:0.3;stroke-linejoin:bevel;stroke-miterlimit:3.9;stroke-dasharray:none;stroke-opacity:1;paint-order:fill markers stroke"
       d="m 65.533751,83.858964 a 3,3 0 0 0 0.03204,-0.09147 3,3 0 0 0 0.07493,-0.66766 3,3 0 0 0 -0.0093,-0.235128 3,3 0 0 0 -0.02739,-0.234094 3,3 0 0 0 -0.04599,-0.230993 3,3 0 0 0 -0.06408,-0.22686 3,3 0 0 0 -0.08165,-0.220658 3,3 0 0 0 -0.0987,-0.213941 3,3 0 0 0 -0.114721,-0.205672 3,3 0 0 0 -0.131258,-0.195854 3,3 0 0 0 -0.145728,-0.185001 3,3 0 0 0 -0.15968,-0.173116 3,3 0 0 0 -0.173116,-0.15968 3,3 0 0 0 -0.185002,-0.145728 3,3 0 0 0 -0.195853,-0.131258 3,3 0 0 0 -0.205673,-0.114722 3,3 0 0 0 -0.21394,-0.0987 3,3 0 0 0 -0.220658,-0.08165 3,3 0 0 0 -0.22686,-0.06408 3,3 0 0 0 -0.230994,-0.04599 3,3 0 0 0 -0.234094,-0.02739 3,3 0 0 0 -0.235128,-0.0093 3,3 0 0 0 -0.667659,0.07545 3,3 0 0 0 -0.63407,0.221692 3,3 0 0 0 -0.568957,0.357601 3,3 0 0 0 -0.474907,0.474906 3,3 0 0 0 -0.357601,0.568441 3,3 0 0 0 -0.221692,0.63407 3,3 0 0 0 -0.07545,0.667659 3,3 0 0 0 0.07545,0.66766 3,3 0 0 0 0.03204,0.09147 z" />
    <path
       id="path5605"
       style="display:inline;fill:#53c659;fill-opacity:0.680496;fill-rule:evenodd;stroke:#000000;stroke-width:0.3;stroke-linejoin:bevel;stroke-miterlimit:3.9;stroke-dasharray:none;stroke-opacity:1;paint-order:fill markers stroke"
       d="m 73.154475,83.858964 a 3,3 0 0 0 -0.01705,-0.146761 3,3 0 0 0 -0.04599,-0.230994 3,3 0 0 0 -0.06408,-0.226342 3,3 0 0 0 -0.08165,-0.221176 3,3 0 0 0 -0.0987,-0.21394 3,3 0 0 0 -0.114727,-0.205672 3,3 0 0 0 -0.131258,-0.195854 3,3 0 0 0 -0.145728,-0.185002 3,3 0 0 0 -0.15968,-0.172599 3,3 0 0 0 -0.173116,-0.160197 3,3 0 0 0 -0.185001,-0.145727 3,3 0 0 0 -0.195854,-0.130742 3,3 0 0 0 -0.205672,-0.115238 3,3 0 0 0 -0.213941,-0.0987 3,3 0 0 0 -0.220658,-0.08165 3,3 0 0 0 -0.22686,-0.06356 3,3 0 0 0 -0.230993,-0.04599 3,3 0 0 0 -0.234095,-0.02791 3,3 0 0 0 -0.235127,-0.0093 3,3 0 0 0 -0.66766,0.07545 3,3 0 0 0 -0.63407,0.221692 3,3 0 0 0 -0.568957,0.3576 3,3 0 0 0 -0.474907,0.474907 3,3 0 0 0 -0.3576,0.568957 3,3 0 0 0 -0.221692,0.63407 3,3 0 0 0 -0.03876,0.344682 z" />
    <path
       id="path5608"
       style="display:inline;fill:#53c659;fill-opacity:0.680496;fill-rule:evenodd;stroke:#000000;stroke-width:0.3;stroke-linejoin:bevel;stroke-miterlimit:3.9;stroke-dasharray:none;stroke-opacity:1;paint-order:fill markers stroke"
       d="m 83.76623,83.858964 a 3,3 0 0 0 -0.0067,-0.170015 3,3 0 0 0 -0.0279,-0.234095 3,3 0 0 0 -0.04599,-0.230993 3,3 0 0 0 -0.06408,-0.22686 3,3 0 0 0 -0.08113,-0.220658 3,3 0 0 0 -0.0987,-0.213941 3,3 0 0 0 -0.115239,-0.205672 3,3 0 0 0 -0.130741,-0.195854 3,3 0 0 0 -0.145727,-0.185001 3,3 0 0 0 -0.160197,-0.173116 3,3 0 0 0 -0.1726,-0.15968 3,3 0 0 0 -0.185001,-0.145728 3,3 0 0 0 -0.195854,-0.131258 3,3 0 0 0 -0.205672,-0.114722 3,3 0 0 0 -0.213941,-0.0987 3,3 0 0 0 -0.221175,-0.08165 3,3 0 0 0 -0.226859,-0.06408 3,3 0 0 0 -0.230994,-0.04599 3,3 0 0 0 -0.233577,-0.02739 3,3 0 0 0 -0.235645,-0.0093 3,3 0 0 0 -0.667659,0.07545 3,3 0 0 0 -0.63407,0.221692 3,3 0 0 0 -0.568441,0.357601 3,3 0 0 0 -0.475423,0.474906 3,3 0 0 0 -0.357084,0.568958 3,3 0 0 0 -0.222209,0.63407 3,3 0 0 0 -0.0677,0.60203 z" />
    <path
       id="path5611"
       style="display:inline;fill:#53c659;fill-opacity:0.680496;fill-rule:evenodd;stroke:#000000;stroke-width:0.3;stroke-linejoin:bevel;stroke-miterlimit:3.9;stroke-dasharray:none;stroke-opacity:1;paint-order:fill markers stroke"
       d="m 95.035826,83.858964 a 3,3 0 0 0 0.0016,-0.0124 3,3 0 0 0 -0.0093,-0.235128 3,3 0 0 0 -0.02791,-0.234094 3,3 0 0 0 -0.04599,-0.230994 3,3 0 0 0 -0.06408,-0.22686 3,3 0 0 0 -0.08113,-0.220658 3,3 0 0 0 -0.0987,-0.21394 3,3 0 0 0 -0.115239,-0.205673 3,3 0 0 0 -0.130741,-0.195853 3,3 0 0 0 -0.145728,-0.185002 3,3 0 0 0 -0.160197,-0.173116 3,3 0 0 0 -0.172599,-0.15968 3,3 0 0 0 -0.185001,-0.145728 3,3 0 0 0 -0.195854,-0.131258 3,3 0 0 0 -0.205672,-0.114721 3,3 0 0 0 -0.213941,-0.0987 3,3 0 0 0 -0.221175,-0.08165 3,3 0 0 0 -0.226859,-0.06408 3,3 0 0 0 -0.230994,-0.04599 3,3 0 0 0 -0.233578,-0.02739 3,3 0 0 0 -0.235644,-0.0093 3,3 0 0 0 -0.66766,0.07493 3,3 0 0 0 -0.634069,0.222208 3,3 0 0 0 -0.568441,0.357084 3,3 0 0 0 -0.475423,0.475424 3,3 0 0 0 -0.357084,0.56844 3,3 0 0 0 -0.222209,0.63407 3,3 0 0 0 -0.07493,0.66766 3,3 0 0 0 0.0015,0.0124 z" />
    <path
       id="path5614"
       style="display:inline;fill:#53c659;fill-opacity:0.680496;fill-rule:evenodd;stroke:#000000;stroke-width:0.3;stroke-linejoin:bevel;stroke-miterlimit:3.9;stroke-dasharray:none;stroke-opacity:1;paint-order:fill markers stroke"
       d="m 104.60062,83.858964 a 3,3 0 0 0 -0.001,-0.02222 3,3 0 0 0 -0.0274,-0.234094 3,3 0 0 0 -0.046,-0.230994 3,3 0 0 0 -0.0641,-0.226343 3,3 0 0 0 -0.0816,-0.221175 3,3 0 0 0 -0.0987,-0.21394 3,3 0 0 0 -0.11472,-0.205672 3,3 0 0 0 -0.13075,-0.195854 3,3 0 0 0 -0.14624,-0.185002 3,3 0 0 0 -0.15968,-0.172599 3,3 0 0 0 -0.17312,-0.160197 3,3 0 0 0 -0.185,-0.145727 3,3 0 0 0 -0.19585,-0.130742 3,3 0 0 0 -0.20567,-0.115238 3,3 0 0 0 -0.21394,-0.0987 3,3 0 0 0 -0.22066,-0.08165 3,3 0 0 0 -0.22686,-0.06356 3,3 0 0 0 -0.231,-0.04599 3,3 0 0 0 -0.23409,-0.02791 3,3 0 0 0 -0.23513,-0.0093 3,3 0 0 0 -0.66766,0.07545 3,3 0 0 0 -0.63407,0.221692 3,3 0 0 0 -0.568955,0.3576 3,3 0 0 0 -0.474907,0.474907 3,3 0 0 0 -0.357601,0.568957 3,3 0 0 0 -0.221692,0.63407 3,3 0 0 0 -0.05116,0.454236 z" />
    <path
       id="path5617"
       style="display:inline;fill:#53c659;fill-opacity:0.680496;fill-rule:evenodd;stroke:#000000;stroke-width:0.3;stroke-linejoin:bevel;stroke-miterlimit:3.9;stroke-dasharray:none;stroke-opacity:1;paint-order:fill markers stroke"
       d="m 112.84611,75.588151 a 3,3 0 0 0 -0.339,0.118339 3,3 0 0 0 -0.56896,0.357601 3,3 0 0 0 -0.4749,0.474906 3,3 0 0 0 -0.3576,0.568958 3,3 0 0 0 -0.2217,0.63407 3,3 0 0 0 -0.0755,0.667142 3,3 0 0 0 0.0755,0.66766 3,3 0 0 0 0.2217,0.63407 3,3 0 0 0 0.3576,0.568957 3,3 0 0 0 0.4749,0.474907 3,3 0 0 0 0.56896,0.357601 3,3 0 0 0 0.339,0.118339 z" />
    <path
       id="path5620"
       style="display:inline;fill:#53c659;fill-opacity:0.680496;fill-rule:evenodd;stroke:#000000;stroke-width:0.3;stroke-linejoin:bevel;stroke-miterlimit:3.9;stroke-dasharray:none;stroke-opacity:1;paint-order:fill markers stroke"
       d="m 112.84611,65.70245 a 3,3 0 0 0 -0.36639,0.128157 3,3 0 0 0 -0.56896,0.357084 3,3 0 0 0 -0.4749,0.475423 3,3 0 0 0 -0.3576,0.568441 3,3 0 0 0 -0.22169,0.63407 3,3 0 0 0 -0.0755,0.66766 3,3 0 0 0 0.0755,0.667659 3,3 0 0 0 0.22169,0.63407 3,3 0 0 0 0.3576,0.568957 3,3 0 0 0 0.4749,0.474907 3,3 0 0 0 0.56896,0.357601 3,3 0 0 0 0.36639,0.128157 z" />
    <path
       id="path5623"
       style="display:inline;fill:#53c659;fill-opacity:0.680496;fill-rule:evenodd;stroke:#000000;stroke-width:0.3;stroke-linejoin:bevel;stroke-miterlimit:3.9;stroke-dasharray:none;stroke-opacity:1;paint-order:fill markers stroke"
       d="m 112.84611,52.513074 a 3,3 0 0 0 -0.0357,0.02222 3,3 0 0 0 -0.47491,0.475423 3,3 0 0 0 -0.35708,0.568441 3,3 0 0 0 -0.22221,0.634069 3,3 0 0 0 -0.0749,0.66766 3,3 0 0 0 0.0749,0.667659 3,3 0 0 0 0.22221,0.63407 3,3 0 0 0 0.35708,0.568958 3,3 0 0 0 0.47491,0.474906 3,3 0 0 0 0.0357,0.02222 z" />
    <path
       id="path5626"
       style="display:inline;fill:#53c659;fill-opacity:0.680496;fill-rule:evenodd;stroke:#000000;stroke-width:0.3;stroke-linejoin:bevel;stroke-miterlimit:3.9;stroke-dasharray:none;stroke-opacity:1;paint-order:fill markers stroke"
       d="m 112.84611,43.789575 a 3,3 0 0 0 -0.154,0.01757 3,3 0 0 0 -0.63407,0.221692 3,3 0 0 0 -0.56895,0.357601 3,3 0 0 0 -0.47491,0.474906 3,3 0 0 0 -0.3576,0.568958 3,3 0 0 0 -0.22169,0.63407 3,3 0 0 0 -0.0754,0.667659 3,3 0 0 0 0.0754,0.667143 3,3 0 0 0 0.22169,0.634587 3,3 0 0 0 0.3576,0.56844 3,3 0 0 0 0.47491,0.474907 3,3 0 0 0 0.56895,0.357601 3,3 0 0 0 0.63407,0.221692 3,3 0 0 0 0.154,0.01757 z" />
    <path
       id="path5629"
       style="display:inline;fill:#53c659;fill-opacity:0.680496;fill-rule:evenodd;stroke:#000000;stroke-width:0.3;stroke-linejoin:bevel;stroke-miterlimit:3.9;stroke-dasharray:none;stroke-opacity:1;paint-order:fill markers stroke"
       d="m 112.84611,30.751611 a 3,3 0 0 0 -0.60978,0.213424 3,3 0 0 0 -0.56844,0.357601 3,3 0 0 0 -0.47543,0.474906 3,3 0 0 0 -0.35708,0.568958 3,3 0 0 0 -0.22221,0.63407 3,3 0 0 0 -0.0749,0.667659 3,3 0 0 0 0.0749,0.667143 3,3 0 0 0 0.22221,0.63407 3,3 0 0 0 0.35708,0.568957 3,3 0 0 0 0.47543,0.474907 3,3 0 0 0 0.56844,0.357601 3,3 0 0 0 0.60978,0.213423 z" />
    <path
       id="path5647"
       style="display:inline;fill:#53c659;fill-opacity:0.680496;fill-rule:evenodd;stroke:#000000;stroke-width:0.3;stroke-linejoin:bevel;stroke-miterlimit:3.9;stroke-dasharray:none;stroke-opacity:1;paint-order:fill markers stroke"
       d="m 59.951663,24.423832 a 3,3 0 0 0 0.343131,0.546737 3,3 0 0 0 0.475424,0.474906 3,3 0 0 0 0.56844,0.357601 3,3 0 0 0 0.63407,0.221692 3,3 0 0 0 0.66766,0.07545 3,3 0 0 0 0.667659,-0.07545 3,3 0 0 0 0.63407,-0.221692 3,3 0 0 0 0.568957,-0.357601 3,3 0 0 0 0.474907,-0.474906 3,3 0 0 0 0.343648,-0.546737 z" />
    <path
       id="path5644"
       style="display:inline;fill:#53c659;fill-opacity:0.680496;fill-rule:evenodd;stroke:#000000;stroke-width:0.3;stroke-linejoin:bevel;stroke-miterlimit:3.9;stroke-dasharray:none;stroke-opacity:1;paint-order:fill markers stroke"
       d="m 67.20135,24.423832 a 3,3 0 0 0 0.04754,0.425297 3,3 0 0 0 0.222209,0.63407 3,3 0 0 0 0.357084,0.568958 3,3 0 0 0 0.475423,0.474906 3,3 0 0 0 0.568441,0.357601 3,3 0 0 0 0.634069,0.221692 3,3 0 0 0 0.66766,0.07545 3,3 0 0 0 0.667659,-0.07545 3,3 0 0 0 0.63407,-0.221692 3,3 0 0 0 0.568958,-0.357601 3,3 0 0 0 0.474906,-0.474906 3,3 0 0 0 0.357601,-0.568958 3,3 0 0 0 0.221692,-0.63407 3,3 0 0 0 0.04754,-0.425297 z" />
    <path
       id="path5641"
       style="display:inline;fill:#53c659;fill-opacity:0.680496;fill-rule:evenodd;stroke:#000000;stroke-width:0.3;stroke-linejoin:bevel;stroke-miterlimit:3.9;stroke-dasharray:none;stroke-opacity:1;paint-order:fill markers stroke"
       d="m 77.824474,24.423832 a 3,3 0 0 0 0.01912,0.167949 3,3 0 0 0 0.221692,0.634069 3,3 0 0 0 0.357601,0.568958 3,3 0 0 0 0.474906,0.474906 3,3 0 0 0 0.568958,0.357601 3,3 0 0 0 0.63407,0.221692 3,3 0 0 0 0.667659,0.07545 3,3 0 0 0 0.66766,-0.07545 3,3 0 0 0 0.634069,-0.221692 3,3 0 0 0 0.568441,-0.357601 3,3 0 0 0 0.474907,-0.474906 3,3 0 0 0 0.357601,-0.568958 3,3 0 0 0 0.221691,-0.634069 3,3 0 0 0 0.01912,-0.167949 z" />
    <path
       id="path5638"
       style="display:inline;fill:#53c659;fill-opacity:0.680496;fill-rule:evenodd;stroke:#000000;stroke-width:0.3;stroke-linejoin:bevel;stroke-miterlimit:3.9;stroke-dasharray:none;stroke-opacity:1;paint-order:fill markers stroke"
       d="m 89.101822,24.423832 a 3,3 0 0 0 0.01033,0.09043 3,3 0 0 0 0.221692,0.63407 3,3 0 0 0 0.357601,0.568957 3,3 0 0 0 0.474906,0.474907 3,3 0 0 0 0.568958,0.357601 3,3 0 0 0 0.634069,0.221692 3,3 0 0 0 0.66766,0.07493 3,3 0 0 0 0.667659,-0.07493 3,3 0 0 0 0.63407,-0.221692 3,3 0 0 0 0.568441,-0.357601 3,3 0 0 0 0.475423,-0.474907 3,3 0 0 0 0.357084,-0.568957 3,3 0 0 0 0.221692,-0.63407 3,3 0 0 0 0.01034,-0.09043 z" />
    <path
       id="path5635"
       style="display:inline;fill:#53c659;fill-opacity:0.680496;fill-rule:evenodd;stroke:#000000;stroke-width:0.3;stroke-linejoin:bevel;stroke-miterlimit:3.9;stroke-dasharray:none;stroke-opacity:1;paint-order:fill markers stroke"
       d="m 98.571011,24.423832 a 3,3 0 0 0 0.03411,0.304374 3,3 0 0 0 0.222209,0.63407 3,3 0 0 0 0.357084,0.568958 3,3 0 0 0 0.475423,0.474906 3,3 0 0 0 0.568443,0.357601 3,3 0 0 0 0.63407,0.221692 3,3 0 0 0 0.66766,0.07545 3,3 0 0 0 0.66766,-0.07545 3,3 0 0 0 0.63407,-0.221692 3,3 0 0 0 0.56895,-0.357601 3,3 0 0 0 0.47491,-0.474906 3,3 0 0 0 0.3576,-0.568958 3,3 0 0 0 0.22169,-0.63407 3,3 0 0 0 0.0341,-0.304374 z" />
    <circle
       style="display:inline;fill:#53c659;fill-opacity:0.680496;fill-rule:evenodd;stroke:#000000;stroke-width:0.3;stroke-linejoin:bevel;stroke-miterlimit:3.9;stroke-dasharray:none;stroke-opacity:1;paint-order:fill markers stroke"
       id="path3463"
       cx="90.419472"
       cy="45.934322"
       r="3" />
    <circle
       style="display:inline;fill:#53c659;fill-opacity:0.680496;fill-rule:evenodd;stroke:#000000;stroke-width:0.3;stroke-linejoin:bevel;stroke-miterlimit:3.9;stroke-dasharray:none;stroke-opacity:1;paint-order:fill markers stroke"
       id="path3463-3"
       cx="63.991505"
       cy="50.653603"
       r="3" />
    <circle
       style="display:inline;fill:#53c659;fill-opacity:0.680496;fill-rule:evenodd;stroke:#000000;stroke-width:0.3;stroke-linejoin:bevel;stroke-miterlimit:3.9;stroke-dasharray:none;stroke-opacity:1;paint-order:fill markers stroke"
       id="path3463-6"
       cx="72.281654"
       cy="41.86174"
       r="3" />
    <circle
       style="display:inline;fill:#53c659;fill-opacity:0.680496;fill-rule:evenodd;stroke:#000000;stroke-width:0.3;stroke-linejoin:bevel;stroke-miterlimit:3.9;stroke-dasharray:none;stroke-opacity:1;paint-order:fill markers stroke"
       id="path3463-7"
       cx="78.924461"
       cy="56.853077"
       r="3" />
    <circle
       style="display:inline;fill:#53c659;fill-opacity:0.680496;fill-rule:evenodd;stroke:#000000;stroke-width:0.3;stroke-linejoin:bevel;stroke-miterlimit:3.9;stroke-dasharray:none;stroke-opacity:1;paint-order:fill markers stroke"
       id="path3463-5"
       cx="86.476341"
       cy="34.560783"
       r="3" />
    <circle
       style="display:inline;fill:#53c659;fill-opacity:0.680496;fill-rule:evenodd;stroke:#000000;stroke-width:0.3;stroke-linejoin:bevel;stroke-miterlimit:3.9;stroke-dasharray:none;stroke-opacity:1;paint-order:fill markers stroke"
       id="path3463-35"
       cx="100.7541"
       cy="38.73135"
       r="3" />
    <circle
       style="display:inline;fill:#53c659;fill-opacity:0.680496;fill-rule:evenodd;stroke:#000000;stroke-width:0.3;stroke-linejoin:bevel;stroke-miterlimit:3.9;stroke-dasharray:none;stroke-opacity:1;paint-order:fill markers stroke"
       id="path3463-62"
       cx="97.856941"
       cy="69.268654"
       r="3" />
    <circle
       style="display:inline;fill:#53c659;fill-opacity:0.680496;fill-rule:evenodd;stroke:#000000;stroke-width:0.3;stroke-linejoin:bevel;stroke-miterlimit:3.9;stroke-dasharray:none;stroke-opacity:1;paint-order:fill markers stroke"
       id="path3463-9"
       cx="99.165558"
       cy="56.118366"
       r="3" />
    <circle
       style="display:inline;fill:#53c659;fill-opacity:0.680496;fill-rule:evenodd;stroke:#000000;stroke-width:0.3;stroke-linejoin:bevel;stroke-miterlimit:3.9;stroke-dasharray:none;stroke-opacity:1;paint-order:fill markers stroke"
       id="path3463-1"
       cx="76.928139"
       cy="67.559853"
       r="3" />
    <circle
       style="display:inline;fill:#53c659;fill-opacity:0.680496;fill-rule:evenodd;stroke:#000000;stroke-width:0.3;stroke-linejoin:bevel;stroke-miterlimit:3.9;stroke-dasharray:none;stroke-opacity:1;paint-order:fill markers stroke"
       id="path3463-2"
       cx="85.973793"
       cy="77.200951"
       r="3" />
    <circle
       style="display:inline;fill:#53c659;fill-opacity:0.680496;fill-rule:evenodd;stroke:#000000;stroke-width:0.3;stroke-linejoin:bevel;stroke-miterlimit:3.9;stroke-dasharray:none;stroke-opacity:1;paint-order:fill markers stroke"
       id="path3463-70"
       cx="65.324577"
       cy="73.901123"
       r="3" />
    <circle
       style="display:inline;fill:#53c659;fill-opacity:0.680496;fill-rule:evenodd;stroke:#000000;stroke-width:0.3;stroke-linejoin:bevel;stroke-miterlimit:3.9;stroke-dasharray:none;stroke-opacity:1;paint-order:fill markers stroke"
       id="path3463-93"
       cx="64.45388"
       cy="63.416847"
       r="3" />
    <circle
       style="display:inline;fill:#53c659;fill-opacity:0.680496;fill-rule:evenodd;stroke:#000000;stroke-width:0.3;stroke-linejoin:bevel;stroke-miterlimit:3.9;stroke-dasharray:none;stroke-opacity:1;paint-order:fill markers stroke"
       id="path3463-60"
       cx="87.774803"
       cy="62.086369"
       r="3" />
    <circle
       style="display:inline;fill:#53c659;fill-opacity:0.680496;fill-rule:evenodd;stroke:#000000;stroke-width:0.3;stroke-linejoin:bevel;stroke-miterlimit:3.9;stroke-dasharray:none;stroke-opacity:1;paint-order:fill markers stroke"
       id="path3463-626"
       cx="64.21447"
       cy="31.678823"
       r="3" />
    <circle
       style="display:inline;fill:#53c659;fill-opacity:0.680496;fill-rule:evenodd;stroke:#000000;stroke-width:0.3;stroke-linejoin:bevel;stroke-miterlimit:3.9;stroke-dasharray:none;stroke-opacity:1;paint-order:fill markers stroke"
       id="path3463-18"
       cx="76.139465"
       cy="29.060122"
       r="3" />
    <circle
       style="display:inline;fill:#53c659;fill-opacity:0.680496;fill-rule:evenodd;stroke:#000000;stroke-width:0.3;stroke-linejoin:bevel;stroke-miterlimit:3.9;stroke-dasharray:none;stroke-opacity:1;paint-order:fill markers stroke"
       id="path3463-79"
       cx="95.290695"
       cy="29.826075"
       r="3" />
    <circle
       style="display:inline;fill:#53c659;fill-opacity:0.680496;fill-rule:evenodd;stroke:#000000;stroke-width:0.3;stroke-linejoin:bevel;stroke-miterlimit:3.9;stroke-dasharray:none;stroke-opacity:1;paint-order:fill markers stroke"
       id="path3463-20"
       cx="106.84361"
       cy="48.167786"
       r="3" />
    <circle
       style="display:inline;fill:#53c659;fill-opacity:0.680496;fill-rule:evenodd;stroke:#000000;stroke-width:0.3;stroke-linejoin:bevel;stroke-miterlimit:3.9;stroke-dasharray:none;stroke-opacity:1;paint-order:fill markers stroke"
       id="path3463-20-2"
       cx="108.07126"
       cy="64.717026"
       r="3" />
    <circle
       style="display:inline;fill:#53c659;fill-opacity:0.680496;fill-rule:evenodd;stroke:#000000;stroke-width:0.3;stroke-linejoin:bevel;stroke-miterlimit:3.9;stroke-dasharray:none;stroke-opacity:1;paint-order:fill markers stroke"
       id="path3463-20-3"
       cx="105.29618"
       cy="78.278114"
       r="3" />
    <circle
       style="display:inline;fill:#53c659;fill-opacity:0.680496;fill-rule:evenodd;stroke:#000000;stroke-width:0.3;stroke-linejoin:bevel;stroke-miterlimit:3.9;stroke-dasharray:none;stroke-opacity:1;paint-order:fill markers stroke"
       id="path3463-20-7"
       cx="74.709938"
       cy="78.78933"
       r="3" />
    <circle
       style="display:inline;fill:#53c659;fill-opacity:0.680496;fill-rule:evenodd;stroke:#000000;stroke-width:0.3;stroke-linejoin:bevel;stroke-miterlimit:3.9;stroke-dasharray:none;stroke-opacity:1;paint-order:fill markers stroke"
       id="path3463-20-5"
       cx="59.552338"
       cy="40.743896"
       r="3" />
    <circle
       style="display:inline;fill:#53c659;fill-opacity:0.680496;fill-rule:evenodd;stroke:#000000;stroke-width:0.3;stroke-linejoin:bevel;stroke-miterlimit:3.9;stroke-dasharray:none;stroke-opacity:1;paint-order:fill markers stroke"
       id="path3463-20-9"
       cx="81.137756"
       cy="45.197205"
       r="3" />
    <g
       id="g2705"
       transform="translate(20.259512)">
      <text
         xml:space="preserve"
         style="font-style:normal;font-variant:normal;font-weight:bold;font-stretch:normal;font-size:4.23333px;font-family:'Times New Roman';-inkscape-font-specification:'Times New Roman, Bold';font-variant-ligatures:normal;font-variant-caps:normal;font-variant-numeric:normal;font-variant-east-asian:normal;text-align:center;text-anchor:middle;fill:#000000;fill-rule:evenodd;stroke:none;stroke-width:0.859999;stroke-linejoin:bevel;stroke-miterlimit:3.9;paint-order:fill markers stroke"
         x="113.72008"
         y="21.937286"
         id="text2083"><tspan
           sodipodi:role="line"
           id="tspan2081"
           style="font-style:normal;font-variant:normal;font-weight:bold;font-stretch:normal;font-size:4.23333px;font-family:'Times New Roman';-inkscape-font-specification:'Times New Roman, Bold';font-variant-ligatures:normal;font-variant-caps:normal;font-variant-numeric:normal;font-variant-east-asian:normal;fill:#000000;stroke:none;stroke-width:0.86"
           x="113.72008"
           y="21.937286">Microstructure</tspan></text>
      <text
         xml:space="preserve"
         style="font-style:normal;font-variant:normal;font-weight:normal;font-stretch:normal;font-size:4.23333px;font-family:'Times New Roman';-inkscape-font-specification:'Times New Roman, Normal';font-variant-ligatures:normal;font-variant-caps:normal;font-variant-numeric:normal;font-variant-east-asian:normal;text-align:center;text-anchor:middle;fill:#000000;fill-rule:evenodd;stroke:none;stroke-width:0.859999;stroke-linejoin:bevel;stroke-miterlimit:3.9;paint-order:fill markers stroke"
         x="108.11712"
         y="27.802927"
         id="text2139"><tspan
           sodipodi:role="line"
           id="tspan2137"
           style="font-style:normal;font-variant:normal;font-weight:normal;font-stretch:normal;font-size:4.23333px;font-family:'Times New Roman';-inkscape-font-specification:'Times New Roman, Normal';font-variant-ligatures:normal;font-variant-caps:normal;font-variant-numeric:normal;font-variant-east-asian:normal;stroke-width:0.86"
           x="108.64629"
           y="27.802927">size </tspan></text>
      <text
         xml:space="preserve"
         style="font-style:italic;font-variant:normal;font-weight:normal;font-stretch:normal;font-size:4.23333px;font-family:'Times New Roman';-inkscape-font-specification:'Times New Roman, Italic';font-variant-ligatures:normal;font-variant-caps:normal;font-variant-numeric:normal;font-variant-east-asian:normal;text-align:center;text-anchor:middle;fill:#000000;fill-rule:evenodd;stroke:none;stroke-width:0.859999;stroke-linejoin:bevel;stroke-miterlimit:3.9;paint-order:fill markers stroke"
         x="137.51114"
         y="55.802929"
         id="text2139-1"><tspan
           sodipodi:role="line"
           id="tspan2137-2"
           style="font-style:italic;font-variant:normal;font-weight:normal;font-stretch:normal;font-size:4.23333px;font-family:'Times New Roman';-inkscape-font-specification:'Times New Roman, Italic';font-variant-ligatures:normal;font-variant-caps:normal;font-variant-numeric:normal;font-variant-east-asian:normal;stroke-width:0.86"
           x="138.04031"
           y="55.802929">matrix property (von-mises plasticity): </tspan></text>
      <text
         xml:space="preserve"
         style="font-style:italic;font-variant:normal;font-weight:normal;font-stretch:normal;font-size:4.23333px;font-family:'Times New Roman';-inkscape-font-specification:'Times New Roman, Italic';font-variant-ligatures:normal;font-variant-caps:normal;font-variant-numeric:normal;font-variant-east-asian:normal;text-align:center;text-anchor:middle;fill:#000000;fill-rule:evenodd;stroke:none;stroke-width:0.859999;stroke-linejoin:bevel;stroke-miterlimit:3.9;paint-order:fill markers stroke"
         x="126.97536"
         y="75.980698"
         id="text2139-1-8"><tspan
           sodipodi:role="line"
           id="tspan2137-2-4"
           style="font-style:italic;font-variant:normal;font-weight:normal;font-stretch:normal;font-size:4.23333px;font-family:'Times New Roman';-inkscape-font-specification:'Times New Roman, Italic';font-variant-ligatures:normal;font-variant-caps:normal;font-variant-numeric:normal;font-variant-east-asian:normal;stroke-width:0.86"
           x="126.97536"
           y="75.980698">fiber property (elasticity):</tspan></text>
      <text
         xml:space="preserve"
         style="font-style:normal;font-variant:normal;font-weight:normal;font-stretch:normal;font-size:4.23333px;font-family:'Times New Roman';-inkscape-font-specification:'Times New Roman, Normal';font-variant-ligatures:normal;font-variant-caps:normal;font-variant-numeric:normal;font-variant-east-asian:normal;text-align:center;text-anchor:middle;fill:#000000;fill-rule:evenodd;stroke:none;stroke-width:0.859999;stroke-linejoin:bevel;stroke-miterlimit:3.9;paint-order:fill markers stroke"
         x="124.5283"
         y="60.937286"
         id="text2139-1-9"><tspan
           sodipodi:role="line"
           id="tspan2137-2-3"
           style="font-style:normal;font-variant:normal;font-weight:normal;font-stretch:normal;font-size:4.23333px;font-family:'Times New Roman';-inkscape-font-specification:'Times New Roman, Normal';font-variant-ligatures:normal;font-variant-caps:normal;font-variant-numeric:normal;font-variant-east-asian:normal;stroke-width:0.86"
           x="125.05746"
           y="60.937286">Young's modulus </tspan></text>
      <text
         xml:space="preserve"
         style="font-style:normal;font-variant:normal;font-weight:normal;font-stretch:normal;font-size:4.23333px;font-family:'Times New Roman';-inkscape-font-specification:'Times New Roman, Normal';font-variant-ligatures:normal;font-variant-caps:normal;font-variant-numeric:normal;font-variant-east-asian:normal;text-align:center;text-anchor:middle;fill:#ff0000;fill-rule:evenodd;stroke:none;stroke-width:0.859999;stroke-linejoin:bevel;stroke-miterlimit:3.9;paint-order:fill markers stroke"
         x="124.5283"
         y="80.937286"
         id="text2139-1-9-10"><tspan
           sodipodi:role="line"
           id="tspan2137-2-3-6"
           style="font-style:normal;font-variant:normal;font-weight:normal;font-stretch:normal;font-size:4.23333px;font-family:'Times New Roman';-inkscape-font-specification:'Times New Roman, Normal';font-variant-ligatures:normal;font-variant-caps:normal;font-variant-numeric:normal;font-variant-east-asian:normal;fill:#ff0000;stroke-width:0.86"
           x="125.05746"
           y="80.937286">Young's modulus </tspan></text>
      <text
         xml:space="preserve"
         style="font-style:normal;font-variant:normal;font-weight:normal;font-stretch:normal;font-size:4.23333px;font-family:'Times New Roman';-inkscape-font-specification:'Times New Roman, Normal';font-variant-ligatures:normal;font-variant-caps:normal;font-variant-numeric:normal;font-variant-east-asian:normal;text-align:center;text-anchor:middle;fill:#000000;fill-rule:evenodd;stroke:none;stroke-width:0.859999;stroke-linejoin:bevel;stroke-miterlimit:3.9;paint-order:fill markers stroke"
         x="120.80863"
         y="65.802925"
         id="text2139-1-9-1"><tspan
           sodipodi:role="line"
           id="tspan2137-2-3-9"
           style="font-style:normal;font-variant:normal;font-weight:normal;font-stretch:normal;font-size:4.23333px;font-family:'Times New Roman';-inkscape-font-specification:'Times New Roman, Normal';font-variant-ligatures:normal;font-variant-caps:normal;font-variant-numeric:normal;font-variant-east-asian:normal;stroke-width:0.86"
           x="120.80863"
           y="65.802925">poisson ratio</tspan></text>
      <text
         xml:space="preserve"
         style="font-style:normal;font-variant:normal;font-weight:normal;font-stretch:normal;font-size:4.23333px;font-family:'Times New Roman';-inkscape-font-specification:'Times New Roman, Normal';font-variant-ligatures:normal;font-variant-caps:normal;font-variant-numeric:normal;font-variant-east-asian:normal;text-align:center;text-anchor:middle;fill:#ff0000;fill-rule:evenodd;stroke:none;stroke-width:0.859999;stroke-linejoin:bevel;stroke-miterlimit:3.9;paint-order:fill markers stroke"
         x="122.00752"
         y="70.937286"
         id="text2139-1-9-1-4"><tspan
           sodipodi:role="line"
           id="tspan2137-2-3-9-7"
           style="font-style:normal;font-variant:normal;font-weight:normal;font-stretch:normal;font-size:4.23333px;font-family:'Times New Roman';-inkscape-font-specification:'Times New Roman, Normal';font-variant-ligatures:normal;font-variant-caps:normal;font-variant-numeric:normal;font-variant-east-asian:normal;fill:#ff0000;stroke-width:0.86"
           x="122.00752"
           y="70.937286">hardening law</tspan></text>
      <text
         xml:space="preserve"
         style="font-style:normal;font-variant:normal;font-weight:normal;font-stretch:normal;font-size:4.23333px;font-family:'Times New Roman';-inkscape-font-specification:'Times New Roman, Normal';font-variant-ligatures:normal;font-variant-caps:normal;font-variant-numeric:normal;font-variant-east-asian:normal;text-align:center;text-anchor:middle;fill:#000000;fill-rule:evenodd;stroke:none;stroke-width:0.859999;stroke-linejoin:bevel;stroke-miterlimit:3.9;paint-order:fill markers stroke"
         x="120.80863"
         y="85.802925"
         id="text2139-1-9-1-5"><tspan
           sodipodi:role="line"
           id="tspan2137-2-3-9-0"
           style="font-style:normal;font-variant:normal;font-weight:normal;font-stretch:normal;font-size:4.23333px;font-family:'Times New Roman';-inkscape-font-specification:'Times New Roman, Normal';font-variant-ligatures:normal;font-variant-caps:normal;font-variant-numeric:normal;font-variant-east-asian:normal;stroke-width:0.86"
           x="120.80863"
           y="85.802925">poisson ratio</tspan></text>
      <text
         xml:space="preserve"
         style="font-style:normal;font-variant:normal;font-weight:normal;font-stretch:normal;font-size:4.23333px;font-family:'Times New Roman';-inkscape-font-specification:'Times New Roman, Normal';font-variant-ligatures:normal;font-variant-caps:normal;font-variant-numeric:normal;font-variant-east-asian:normal;text-align:center;text-anchor:middle;fill:#ff0000;fill-rule:evenodd;stroke:none;stroke-width:0.859999;stroke-linejoin:bevel;stroke-miterlimit:3.9;paint-order:fill markers stroke"
         x="118.46012"
         y="32.980694"
         id="text2143"><tspan
           sodipodi:role="line"
           id="tspan2141"
           style="font-style:normal;font-variant:normal;font-weight:normal;font-stretch:normal;font-size:4.23333px;font-family:'Times New Roman';-inkscape-font-specification:'Times New Roman, Normal';font-variant-ligatures:normal;font-variant-caps:normal;font-variant-numeric:normal;font-variant-east-asian:normal;fill:#ff0000;stroke-width:0.86"
           x="118.98929"
           y="32.980694">volume fraction </tspan></text>
      <text
         xml:space="preserve"
         style="font-style:normal;font-variant:normal;font-weight:normal;font-stretch:normal;font-size:4.23333px;font-family:'Times New Roman';-inkscape-font-specification:'Times New Roman, Normal';font-variant-ligatures:normal;font-variant-caps:normal;font-variant-numeric:normal;font-variant-east-asian:normal;text-align:center;text-anchor:middle;fill:#ff0000;fill-rule:evenodd;stroke:none;stroke-width:0.859999;stroke-linejoin:bevel;stroke-miterlimit:3.9;paint-order:fill markers stroke"
         x="114.56737"
         y="37.980694"
         id="text2197"><tspan
           sodipodi:role="line"
           id="tspan2195"
           style="font-style:normal;font-variant:normal;font-weight:normal;font-stretch:normal;font-size:4.23333px;font-family:'Times New Roman';-inkscape-font-specification:'Times New Roman, Normal';font-variant-ligatures:normal;font-variant-caps:normal;font-variant-numeric:normal;font-variant-east-asian:normal;fill:#ff0000;stroke-width:0.86"
           x="114.56737"
           y="37.980694">fiber radius</tspan></text>
      <text
         xml:space="preserve"
         style="font-style:normal;font-variant:normal;font-weight:normal;font-stretch:normal;font-size:4.23333px;font-family:'Times New Roman';-inkscape-font-specification:'Times New Roman, Normal';font-variant-ligatures:normal;font-variant-caps:normal;font-variant-numeric:normal;font-variant-east-asian:normal;text-align:center;text-anchor:middle;fill:#ff0000;fill-rule:evenodd;stroke:none;stroke-width:0.859999;stroke-linejoin:bevel;stroke-miterlimit:3.9;paint-order:fill markers stroke"
         x="117.56667"
         y="42.980694"
         id="text2201"><tspan
           sodipodi:role="line"
           id="tspan2199"
           style="font-style:normal;font-variant:normal;font-weight:normal;font-stretch:normal;font-size:4.23333px;font-family:'Times New Roman';-inkscape-font-specification:'Times New Roman, Normal';font-variant-ligatures:normal;font-variant-caps:normal;font-variant-numeric:normal;font-variant-east-asian:normal;fill:#ff0000;stroke-width:0.86"
           x="117.56667"
           y="42.980694">fiber radius std</tspan></text>
      <text
         xml:space="preserve"
         style="font-style:normal;font-variant:normal;font-weight:bold;font-stretch:normal;font-size:4.23333px;font-family:'Times New Roman';-inkscape-font-specification:'Times New Roman, Bold';font-variant-ligatures:normal;font-variant-caps:normal;font-variant-numeric:normal;font-variant-east-asian:normal;text-align:center;text-anchor:middle;fill:#000000;fill-rule:evenodd;stroke:none;stroke-width:0.859999;stroke-linejoin:bevel;stroke-miterlimit:3.9;paint-order:fill markers stroke"
         x="116.87544"
         y="50.937286"
         id="text2205"><tspan
           sodipodi:role="line"
           id="tspan2203"
           style="font-style:normal;font-variant:normal;font-weight:bold;font-stretch:normal;font-size:4.23333px;font-family:'Times New Roman';-inkscape-font-specification:'Times New Roman, Bold';font-variant-ligatures:normal;font-variant-caps:normal;font-variant-numeric:normal;font-variant-east-asian:normal;fill:#000000;stroke:none;stroke-width:0.86"
           x="116.87544"
           y="50.937286">Material properies</tspan></text>
    </g>
  </g>
</svg>
